<?xml version="1.0" encoding="UTF-8" standalone="no"?>
<svg
   xmlns:dc="http://purl.org/dc/elements/1.1/"
   xmlns:cc="http://creativecommons.org/ns#"
   xmlns:rdf="http://www.w3.org/1999/02/22-rdf-syntax-ns#"
   xmlns:svg="http://www.w3.org/2000/svg"
   xmlns="http://www.w3.org/2000/svg"
   version="1.1"
   id="svg2"
   viewBox="0 0 641.42941 429.67218"
   height="121.26304mm"
   width="181.02563mm">
  <defs
     id="defs4" />
  <metadata
     id="metadata7">
    <rdf:RDF>
      <cc:Work
         rdf:about="">
        <dc:format>image/svg+xml</dc:format>
        <dc:type
           rdf:resource="http://purl.org/dc/dcmitype/StillImage" />
        <dc:title></dc:title>
      </cc:Work>
    </rdf:RDF>
  </metadata>
  <g
     transform="translate(-60.665077,-176.18851)"
     id="layer2" />
  <g
     transform="translate(-60.665077,-176.18851)"
     id="layer1">
    <g
       transform="translate(116.16754,100.0051)"
       id="g6769" />
  </g>
  <g
     transform="translate(-60.665077,-176.18851)"
     id="layer3">
    <g
       id="g4209"
       transform="translate(-7.286576,-63.972295)">
      <path
         d="m 328.14457,408.77586 c -7.41706,-17.49385 -19.7762,-26.7509 -32.82995,-34.85026 -49.98049,-37.51171 -137.74362,-32.08425 -186.14291,-8.16788 -24.067582,17.36313 -30.728964,34.61647 -39.121115,47.05875 -1.010677,12.4554 -1.191582,50.60372 3.15301,63.04788 1.242296,8.59371 9.326331,31.01915 28.605525,72.84302 4.37358,22.67184 -3.006678,40.17308 -5.555845,61.11423 39.964855,35.60122 102.112515,48.18266 140.472485,58.56347 m 91.43776,-259.62495 c 1.49496,4.49748 4.13625,9.56812 3.92857,13.21428 -0.22846,5.12868 -0.35297,10.36132 0.35714,16.42857 2.67116,8.45238 5.58933,16.90477 6.42858,25.35715 l -3.57143,8.92857 0,7.85714 c 11.3,17.30711 24.01398,36.2399 28.57143,43.92857 l -1.42858,5.71429 -3.57142,3.92857 -17.5,3.57143 -3.92858,10.35714 0.35715,11.07143 c 1.40809,3.01971 -2.15537,5.04512 -5.35715,7.14286 2.94498,2.44222 7.24848,3.25421 5.71429,11.07143 l -12.14286,10.71428 c 4.86359,11.54762 9.59202,23.09524 1.42857,34.64286 -7.56595,7.92476 -16.15927,7.63052 -24.64285,8.21428 -12.39485,-0.65052 -26.53146,-6.29603 -37.14286,-4.28571 0.68213,-2.22665 -6.82425,1.95642 -10.35714,8.21429 -5.72458,12.00837 -11.03652,24.6357 -18.57143,33.92857"
         style="fill:none;fill-opacity:1;fill-rule:evenodd;stroke:#ffffff;stroke-width:3;stroke-linecap:butt;stroke-linejoin:miter;stroke-miterlimit:4;stroke-dasharray:none;stroke-opacity:1"
         id="path6616" />
      <path
         id="path6622"
         style="fill:none;fill-opacity:1;fill-rule:evenodd;stroke:#ffffff;stroke-width:3;stroke-linecap:butt;stroke-linejoin:miter;stroke-miterlimit:4;stroke-dasharray:none;stroke-opacity:1"
         d="m 449.18815,404.71494 c 7.41706,-17.49385 19.7762,-26.7509 32.82995,-34.85026 49.98049,-37.51171 137.74362,-32.08425 186.14291,-8.16788 24.06757,17.36313 30.72896,34.61647 39.12111,47.05875 1.01067,12.4554 1.19158,50.60372 -3.15301,63.04788 -1.2423,8.59371 -9.32633,31.01915 -28.60552,72.84302 -4.37358,22.67184 3.00667,40.17308 5.55584,61.11423 -39.96485,35.60122 -102.11251,48.18266 -140.47248,58.56347 M 449.16919,404.6992 c -1.49496,4.49748 -4.13625,9.56812 -3.92857,13.21428 0.22846,5.12868 0.35297,10.36132 -0.35714,16.42857 -2.67116,8.45238 -5.58933,16.90477 -6.42858,25.35715 l 3.57143,8.92857 0,7.85714 c -11.3,17.30711 -24.01398,36.2399 -28.57143,43.92857 l 1.42858,5.71429 3.57142,3.92857 17.5,3.57143 3.92858,10.35714 -0.35715,11.07143 c -1.40809,3.01971 2.15537,5.04512 5.35715,7.14286 -2.94498,2.44222 -7.24848,3.25421 -5.71429,11.07143 l 12.14286,10.71428 c -4.86359,11.54762 -9.59202,23.09524 -1.42857,34.64286 7.56595,7.92476 16.15927,7.63052 24.64285,8.21428 12.39485,-0.65052 26.53146,-6.29603 37.14286,-4.28571 -0.68213,-2.22665 6.82425,1.95642 10.35714,8.21429 5.72458,12.00837 11.03652,24.6357 18.57143,33.92857" />
      <path
         style="fill:none;fill-rule:evenodd;stroke:#ffffff;stroke-width:2;stroke-linecap:butt;stroke-linejoin:miter;stroke-miterlimit:4;stroke-dasharray:none;stroke-opacity:1"
         d="m 188.76349,347.53737 c 1.31949,-0.74189 -1.84461,-9.33886 -0.75761,-10.42586 0.19062,-0.19062 3.22335,0 3.57143,0 5.2627,0 7.23738,0.87057 10,-5 2.50642,-4.43825 2.88579,-9.70492 5,-14.28571 0.1139,-0.24678 2.49714,-3.74857 3.57143,-4.28572 0.21296,-0.10648 0.54593,0.16836 0.71429,0 0.16836,-0.16836 -0.16836,-0.54592 0,-0.71428 0.10148,-0.10148 1.66083,-0.46452 2.14285,-1.42857 0.10648,-0.21296 -0.16835,-0.54593 0,-0.71429 0.72817,-0.72817 1.39246,0.78652 2.14286,-0.71429 1.06926,-2.13851 1.43522,-4.39724 2.85714,-6.42857 1.06641,-1.52343 2.47768,-2.7818 3.57143,-4.28571 1.29741,-1.78393 2.69368,-5.9897 5,-7.14286 0.85184,-0.42592 1.91434,0.13469 2.85715,0 2.17306,-0.31044 4.41092,-0.56387 6.42857,-1.42857 1.1628,-1.1628 1.33396,-1.63513 2.85714,-2.14286 1.22737,-0.40912 4.06279,0.74977 5,0 9.80013,-7.8401 7.3494,-7.89443 14.28571,-17.14285 10.57523,-14.10031 0.71543,-10e-4 7.85715,-8.57143 0.34083,-0.409 0.33782,-1.05211 0.71428,-1.42857 0.41922,-0.41922 4.88313,-0.0584 5,0 0.70862,0.35431 1.40299,1.18194 2.14286,1.42857 0.45175,0.15058 0.95886,-0.0783 1.42857,0 0.96834,0.16139 1.90476,0.47619 2.85714,0.71428 1.66667,0 3.33909,-0.13841 5,0 2.72086,0.22674 11.98721,3.29212 14.28573,2.14286 0.61189,-0.30595 2.52692,-4.72362 2.85714,-5.71429 0.0753,-0.22587 -0.16836,-0.54592 0,-0.71428 0.16836,-0.16836 0.54593,0.16836 0.71429,0 0.16836,-0.16836 -0.16836,-0.54593 0,-0.71429 1.81299,-1.81299 4.96897,-1.11801 7.14285,-1.42857 1.49072,-0.21296 2.80036,-1.18101 4.28572,-1.42857 0.93942,-0.15657 2.18371,0.67343 2.85714,0 0.16836,-0.16836 -0.16836,-0.54593 0,-0.71429 0.50508,-0.50507 1.49014,0.2901 2.14286,0 1.75414,-0.77961 3.24136,-2.08773 5,-2.85714 3.57447,-1.56383 9.75792,-3.1477 13.57143,-3.57143 2.79948,-0.31105 7.04132,0.73967 10,0 3.39679,-0.8492 0.99177,-0.76053 5,-1.42857 4.75655,-0.79276 11.57072,0.37368 16.42857,0 11.10679,-0.85437 -1.66396,-0.71428 5.71428,-0.71428 0.90352,0 3.52829,0.0863 3.57143,0 0.21296,-0.42592 -0.11549,-0.9666 0,-1.42858 0.12913,-0.5165 0.54593,-0.92349 0.71429,-1.42857 0.15058,-0.45175 -0.47619,-1.42857 0,-1.42857 0.084,0 -0.10504,2.03782 0,2.14286 0.16836,0.16836 0.47619,0 0.71428,0 0.71429,0 1.43068,0.0548 2.14286,0 2.38578,-0.18352 4.77786,-0.35044 7.14286,-0.71429 3.83084,-0.58936 7.57637,-1.71483 11.42857,-2.14285 4.73278,-0.52587 9.52381,0 14.28571,0 l 7.14286,0 c 0.31773,0 2.41388,-0.22164 2.85714,0 0.30117,0.15058 0.41312,0.5637 0.71429,0.71428 0.21296,0.10648 0.50133,-0.10648 0.71429,0 0.30117,0.15059 0.43412,0.52751 0.71428,0.71429 2.67043,1.78028 5.90704,2.38257 8.57143,4.28571 4.96232,3.54452 9.67736,7.43467 14.28571,11.42857 5.84725,5.06762 6.92791,7.83068 12.85715,12.14286 0.60891,0.44285 1.44378,0.43466 2.14285,0.71429 0.92966,-0.39749 1.55814,1.1362 2.14286,1.42857 1.26525,0.63262 7.30959,-4.45245 7.85714,-5 0.8418,-0.8418 1.22831,-2.09502 2.14286,-2.85715 0.57841,-0.48201 1.51639,-0.29664 2.14286,-0.71428 0.19811,-0.13207 -0.16836,-0.54593 0,-0.71429 0.33672,-0.33672 0.95238,0 1.42857,0 3.33333,0 6.7314,-0.65372 10,0 2.09893,0.41979 8.3646,3.8678 10,5 0.19094,0.13219 6.00494,5.14533 7.14286,5.71429 0.87805,0.43902 1.95482,0.32758 2.85714,0.71428 0.78905,0.33817 1.37502,1.04466 2.14286,1.42858 1.54099,0.77049 4.04212,1.72481 5.71428,2.14285 0.76329,0.19082 3.84321,0.27178 4.28572,0.71429 0.16836,0.16836 0,0.47619 0,0.71428 1.19047,0.2381 2.36095,0.62118 3.57143,0.71429 4.03569,0.31044 8.09523,0 12.14285,0 l 17.85715,0 c 3.0091,0 9.59619,-1.11809 12.14285,1.42857 0.37647,0.37646 0.39485,1.00265 0.71429,1.42857 0.40406,0.53875 1.00788,0.90271 1.42857,1.42857 1.29882,1.62352 3.97336,7.09925 4.28571,9.28572 0.33569,2.34977 -0.62149,13.75701 0,15 0.38407,0.76813 1.87558,2.50231 2.14286,3.57143 0.17324,0.69296 -0.50507,1.63778 0,2.14285 0.16836,0.16836 0.50133,-0.10648 0.71429,0 0.60234,0.30117 0.77524,1.26524 1.42857,1.42858 6.66667,0 0.71428,-0.71429 2.14286,0.71428 0.33671,0.33672 1.09185,-0.33672 1.42857,0 0.33672,0.33672 -0.21296,1.00265 0,1.42857 0.34821,0.69642 2.42565,2.53353 2.85714,2.85715 3.28547,2.4641 -0.75018,-1.45251 3.57143,1.42857 0.19811,0.13207 -0.16836,0.54592 0,0.71428 0.16836,0.16836 0.54593,-0.16836 0.71428,0 0.39996,0.39996 -0.15509,3.10615 0,3.57143 0.72194,2.16581 2.17498,3.96872 3.57143,5.71429 2.23001,2.78751 6.42857,6.16181 6.42857,10"
         id="path7064" />
      <path
         style="fill:none;fill-rule:evenodd;stroke:#ffffff;stroke-width:2;stroke-linecap:butt;stroke-linejoin:miter;stroke-miterlimit:4;stroke-dasharray:none;stroke-opacity:1"
         d="m 220.31462,347.37149 c 2.63737,-3.51649 2.67295,-6.98159 6.26269,-9.54569 1.43151,-1.0225 3.28466,-2.28537 5,-2.85715 0.45176,-0.15058 1.09186,0.33672 1.42857,0 0.16836,-0.16835 -0.16835,-0.54592 0,-0.71428 0.16836,-0.16836 0.54593,0.16836 0.71429,0 0.37646,-0.37646 0.41897,-0.98559 0.71429,-1.42857 1.50288,-2.25432 4.65499,-7.3275 7.14285,-8.57143 1.93152,-0.96576 1.48605,2.17159 2.85715,2.85714 0.7108,0.3554 5.13341,0.23235 5.71428,0 0.62527,-0.25011 0.88983,-1.02451 1.42857,-1.42857 1.67395,-1.25546 3.9713,-1.69515 5.71429,-2.85714 0.56033,-0.37356 0.78969,-1.21562 1.42857,-1.42857 0.63052,-0.21018 2.10676,0 2.85714,0 3.45633,0 8.21,0.895 11.42857,-0.71429 7.0538,-3.5269 -0.10097,-0.87509 7.85715,-4.28571 5.26408,-2.25604 5.75914,-1.80815 10.71429,-4.28572 2.62384,-1.31192 4.90467,-3.69522 7.85715,-4.28571 3.05206,-0.61042 10.55093,0 13.57142,0 1.42858,0 2.8998,0.34648 4.28572,0 1.5495,-0.38738 2.80276,-1.54968 4.28571,-2.14286 1.89679,-0.75872 9.85046,-2.11629 12.14286,-1.42857 6.02906,1.80872 10.8918,7.66118 15,12.14286 0.79823,0.87079 4.79993,7.14285 7.14286,7.14285 0.44442,0 -0.58867,-8.90887 -0.71429,-9.28571 -0.21984,-0.65951 -1.77214,-2.26643 0,-2.85714 0.45176,-0.15059 0.9666,0.11549 1.42857,0 0.5165,-0.12913 0.9235,-0.54593 1.42857,-0.71429 1.28364,-0.42788 2.98433,0.37183 4.28572,0 5.80978,-1.65994 11.11943,-4.58489 17.14286,-5.71429 2.91219,-0.54603 12.86044,-1.42791 16.42857,-0.71428 4.09264,0.81853 7.97164,4.70283 12.14285,4.28571 3.36445,1.32156 5.6491,-1.77756 8.57143,-2.14285 2.59883,-0.32486 5.2381,0 7.85715,0 l 20.71428,0 c 10.92949,0 4.01097,-0.32968 11.42857,2.14285 0.22588,0.0753 0.54593,-0.16836 0.71429,0 0.27063,0.27063 -0.27752,11.15105 0,11.42857 0.16836,0.16836 0.47619,0 0.71428,0 3.27434,0 4.52049,0.19572 7.85715,-0.71428 1.237,-0.33737 2.33858,-1.07633 3.57143,-1.42857 1.15309,-0.32946 3.05355,0 4.28571,0 l 11.42857,0 c 0.70562,0 4.02135,-0.26437 4.28572,0 1.47788,1.47788 -2.2584,-0.0578 0.71428,1.42857 1.69643,0.84821 6.17123,-0.84296 7.85714,0 0.30117,0.15058 0.43412,0.52751 0.71429,0.71428 0.88596,0.59065 2.10422,0.67565 2.85714,1.42858 0.94193,0.94193 1.82361,3.72299 2.14286,5 0.17324,0.69295 -0.50508,1.63778 0,2.14285 0.16836,0.16836 0.54593,-0.16836 0.71429,0 0.16835,0.16836 -0.16836,0.54593 0,0.71429 0.33671,0.33672 1.09185,-0.33672 1.42857,0 0.16836,0.16836 -0.16836,0.54593 0,0.71428 0.16836,0.16836 0.50132,-0.10648 0.71428,0 0.30117,0.15059 0.39485,0.60781 0.71429,0.71429 0.45175,0.15058 0.9666,-0.11549 1.42857,0 1.033,0.25825 1.81303,1.21975 2.85714,1.42857 0.70042,0.14008 1.4499,-0.17324 2.14286,0 0.32666,0.0817 0.5637,0.41312 0.71429,0.71429 0.70227,1.40455 0.31235,2.36563 0.71428,3.57143 0.28204,0.8461 1.74126,1.33966 2.14286,2.14285 0.45621,0.91243 0.55527,3.13478 1.42857,3.57143 0.76191,0.38095 2.09524,-0.38095 2.85714,0 0.30117,0.15059 0.41312,0.5637 0.71429,0.71429 0.21296,0.10648 0.54593,-0.16836 0.71428,0 0.4762,0.47619 -0.47619,2.38095 0,2.85714 0.16836,0.16836 0.54593,-0.16836 0.71429,0 0.95238,0.95238 -0.43287,3.23967 1.4719,3.23967"
         id="path7068" />
      <path
         style="fill:none;fill-rule:evenodd;stroke:#ffffff;stroke-width:2;stroke-linecap:butt;stroke-linejoin:miter;stroke-miterlimit:4;stroke-dasharray:none;stroke-opacity:1"
         d="m 205.95245,345.63979 c 0.44534,-6.46122 4.72858,-11.13348 8.08122,-16.16244 0.41765,-0.62647 2.24553,-6.28613 2.77792,-6.81853 0.15743,-0.15742 3.88319,-0.15742 4.04061,0 0.2381,0.2381 -0.23809,0.77206 0,1.01015 0.17011,0.17011 3.84198,0.16553 4.04061,0 3.29238,-2.74364 6.30227,-5.83741 9.09138,-9.09137 1.27775,-1.49071 1.64213,-3.66244 3.03046,-5.05076 2.28739,-2.28739 5.50133,-0.0427 8.08122,-1.01015 7.22219,-2.70833 3.14039,-2.90539 9.09137,-7.07107 8.06665,-5.64666 16.09495,-6.694 25.25381,-3.03046 0.88427,0.35371 1.16847,1.59439 2.02031,2.02031 2.30104,1.15052 17.92831,-1.13738 20.20306,0 0.42592,0.21295 0.58423,0.79719 1.01015,1.01015 0.18535,0.0927 3.03046,-0.0741 3.03046,0 0,0.33672 -1.24825,0.23809 -1.01015,0 0.85846,-0.85847 2.17199,-1.16184 3.03045,-2.02031 0.33672,-0.33671 0.7972,-0.58423 1.01016,-1.01015 0.15058,-0.30117 -0.2381,-0.77206 0,-1.01015 1.96979,-1.9698 0.43773,4.27631 1.01015,-2.02031 0.015,-0.16475 0.85031,-11.18198 2.0203,-13.13198 0.38738,-0.64563 1.64675,-0.35643 2.02031,-1.01015 1.05657,-1.849 1.06792,-4.15616 2.0203,-6.06092 0.75293,-1.50584 2.02031,-2.69374 3.03046,-4.04061 1.34687,-3.03046 2.6509,-6.08032 4.04061,-9.09137 0.25471,-0.55186 4.59077,-8.08122 6.06092,-8.08122 1.71693,0 0.76734,3.35109 1.01015,5.05076 0.39413,2.75892 1.95012,3.90025 3.03046,6.06092 0.15058,0.30117 -0.2381,0.77205 0,1.01015 0.50507,0.50508 2.52538,-0.50508 3.03045,0 0.5324,0.5324 0.38369,1.60266 1.01016,2.0203 1.70318,1.13546 16.82297,-1.18496 19.1929,0 0.42591,0.21296 0.58423,0.7972 1.01015,1.01016 1.44905,0.72452 3.51761,0.9982 5.05076,2.0203 0.39622,0.26415 0.5584,0.85957 1.01015,1.01015 4.01089,1.33697 16.15941,-1.12104 18.18275,-2.0203 4.5248,-2.01102 18.76118,-11.52342 24.24366,-16.16244 2.42408,-2.05115 5.02784,-5.54438 8.08122,-7.07107 0.18084,-0.0904 2.94037,-0.12012 3.03046,0 0.90351,1.20468 1.27319,2.73317 2.0203,4.04061 0.60234,1.05409 1.54207,1.91457 2.02031,3.03046 0.54689,1.27607 0.52268,2.74068 1.01015,4.04061 0.52874,1.40997 1.60662,2.5927 2.02031,4.04061 0,10.82282 -0.71429,-1.13271 1.01015,4.04061 0.21296,0.63888 -0.30117,1.41797 0,2.0203 0.0975,0.19505 4.50227,0 6.06091,0 l 26.26397,0 c 2.44615,0 -0.0693,0.94083 1.01015,2.02031 0.0833,0.0833 13.01011,0.16172 14.14214,0 4.05163,-0.57881 8.79861,-3.46476 13.13198,-2.02031 2.03202,0.67735 2.912,7.96277 3.03046,8.08122 0.17145,0.17145 2.76633,0.0881 3.03046,0 3.51816,-1.17272 6.53993,-4.03316 10.10152,-5.05076 1.61881,-0.46251 3.36718,0 5.05076,0 0.33672,0 0.7946,-0.25867 1.01016,0 1.55443,1.86532 2.69374,4.04061 4.04061,6.06092 26.24444,-0.33728 10.91545,10.60225 34.40646,13.0689 2.86935,0 0.16812,10.2659 0.8876,7.38796 2.60499,22.10988 28.33889,42.14601 28.34555,44.95051"
         id="path7062" />
      <path
         style="fill:none;fill-rule:evenodd;stroke:#ffffff;stroke-width:2;stroke-linecap:butt;stroke-linejoin:miter;stroke-miterlimit:4;stroke-dasharray:none;stroke-opacity:1"
         d="m 215.16249,346.26558 c 1.01015,-3.70389 1.5687,-9.58199 3.03046,-13.13199 0.9245,-2.24521 2.69374,-4.04061 4.04061,-6.06091 2.78744,-4.18116 9.66596,-14.48689 14.14214,-17.1726 0.91305,-0.54783 2.07807,-0.53396 3.03045,-1.01015 1.08588,-0.54294 1.90324,-1.56942 3.03046,-2.0203 2.29159,-0.91664 8.18813,0.0535 10.10153,1.01015 2.64902,1.32451 1.1616,2.50645 5.05076,2.0203 11.46963,-1.4337 1.34151,0.3394 10.10152,-4.04061 3.76273,-1.88136 9.04757,-2.71627 13.13199,-3.03045 0.75681,-0.0582 11.6814,0.72529 13.13198,0 0.42592,-0.21296 0.5584,-0.85957 1.01015,-1.01016 0.95832,-0.31943 2.12695,0.45176 3.03046,0 2.12959,-1.06479 3.2515,-3.4914 5.05076,-5.05076 3.61647,-3.13427 7.19112,-6.34698 11.11168,-9.09137 7.73975,-5.41783 18.56114,-9.92194 27.27412,-13.13199 2.3002,-0.84744 4.76731,-1.18257 7.07107,-2.0203 1.41518,-0.51461 2.61204,-1.54411 4.04061,-2.02031 0.63887,-0.21295 1.39503,0.25011 2.0203,0 2.34723,-0.93889 4.19804,-2.97798 7.07107,-2.0203 4.64222,1.54741 4.10781,7.13826 7.07107,10.10152 0.23809,0.2381 0.77206,-0.23809 1.01015,0 0.2381,0.2381 -0.23809,0.77206 0,1.01016 0.57794,0.57794 4.28146,0 5.05076,0 3.65698,0 7.53058,0.25579 11.11168,0 6.18981,-0.44213 11.19758,-3.04478 17.1726,-4.04061 0.9964,-0.16607 2.0203,0 3.03045,0 0.33672,0 0.90368,-0.31944 1.01016,0 1.05677,3.17033 -1.19775,14.7771 0,17.17259 0.15058,0.30117 0.67343,0 1.01015,0 l 14.14213,0 c 3.52404,0 6.68063,-1.45015 10.10153,-2.0203 3.22092,-0.53682 8.11835,1.06904 11.11168,0 7.4283,-2.65297 18.30419,-12.0904 23.23351,-16.16245 4.46853,-3.6914 11.32879,-10.38262 16.16244,-14.14213 0.25698,-0.19988 3.27311,-1.77765 4.04061,-1.01015 0.23809,0.23809 0,0.67343 0,1.01015 l 0,6.06091 c 0,1.91641 -0.76786,14.62673 0,16.16245 0.15058,0.30116 0.68349,-0.0817 1.01015,0 1.73337,0.43334 5.69652,1.6559 7.07107,3.03045 1.34687,1.34687 -2.14286,0.9693 1.01015,2.02031 2.65623,0.88541 20.00343,0 23.23351,0 2.28432,0 7.85549,-0.45146 8.08122,0 0.30117,0.60234 0,1.34687 0,2.0203 0,9.31416 -0.26551,18.28803 -3.03046,27.27412 -0.53326,1.7331 -1.52216,3.30725 -2.0203,5.05076 -0.27895,0.97632 -0.50041,6.07026 0,7.07107 1.30915,2.61831 9.90472,-0.1968 11.11167,1.01015 0.2381,0.2381 -0.23809,0.77206 0,1.01016 0.2381,0.23809 0.77206,-0.2381 1.01016,0 0.19923,0.19923 -0.99863,2.04336 0,4.04061 2.102,4.20401 -0.0697,-1.07989 2.0203,1.01015 0.96957,0.96957 -0.9023,1.01015 2.02031,1.01015 1.01015,0 3.03045,-1.01015 3.03045,0 0,0.33672 -1.01015,-0.33671 -1.01015,0 0,0.53479 4.88735,6.90767 5.3033,7.32361"
         id="path7091" />
    </g>
  </g>
</svg>
