<?xml version="1.0" encoding="UTF-8" standalone="no"?>
<!-- Created with Inkscape (http://www.inkscape.org/) -->

<svg
   xmlns:dc="http://purl.org/dc/elements/1.1/"
   xmlns:cc="http://creativecommons.org/ns#"
   xmlns:rdf="http://www.w3.org/1999/02/22-rdf-syntax-ns#"
   xmlns:svg="http://www.w3.org/2000/svg"
   xmlns="http://www.w3.org/2000/svg"
   xmlns:sodipodi="http://sodipodi.sourceforge.net/DTD/sodipodi-0.dtd"
   xmlns:inkscape="http://www.inkscape.org/namespaces/inkscape"
   width="771.43634"
   height="771.43634"
   id="svg2"
   version="1.1"
   inkscape:version="0.91 r13725"
   sodipodi:docname="geometry-for-rebels.svg"
   inkscape:export-filename="/Users/dominic/projects/tsnuk/threadless-contest/geometry-for-rebels-square.png"
   inkscape:export-xdpi="300"
   inkscape:export-ydpi="300">
  <defs
     id="defs4" />
  <sodipodi:namedview
     id="base"
     pagecolor="#ffffff"
     bordercolor="#666666"
     borderopacity="1.0"
     inkscape:pageopacity="0.0"
     inkscape:pageshadow="2"
     inkscape:zoom="0.49497475"
     inkscape:cx="79.998899"
     inkscape:cy="449.32236"
     inkscape:document-units="px"
     inkscape:current-layer="layer1"
     showgrid="false"
     inkscape:window-width="1423"
     inkscape:window-height="845"
     inkscape:window-x="24"
     inkscape:window-y="21"
     inkscape:window-maximized="0"
     inkscape:snap-nodes="false"
     inkscape:snap-others="false"
     inkscape:snap-bbox="true"
     inkscape:bbox-paths="false"
     inkscape:bbox-nodes="true"
     inkscape:snap-global="false"
     fit-margin-top="0"
     fit-margin-left="0"
     fit-margin-right="0"
     fit-margin-bottom="0">
    <inkscape:grid
       type="xygrid"
       id="grid4413"
       spacingx="40"
       spacingy="40"
       empspacing="10"
       originx="-89.022919"
       originy="-121.18527" />
  </sodipodi:namedview>
  <metadata
     id="metadata7">
    <rdf:RDF>
      <cc:Work
         rdf:about="">
        <dc:format>image/svg+xml</dc:format>
        <dc:type
           rdf:resource="http://purl.org/dc/dcmitype/StillImage" />
        <dc:title></dc:title>
      </cc:Work>
    </rdf:RDF>
  </metadata>
  <g
     inkscape:label="Ebene 1"
     inkscape:groupmode="layer"
     id="layer1"
     transform="translate(-89.022919,-159.74057)">
    <circle
       style="opacity:1;fill:#1a1a1a;fill-opacity:1;stroke:none;stroke-width:13.23383522;stroke-linecap:round;stroke-linejoin:miter;stroke-miterlimit:4;stroke-dasharray:none;stroke-dashoffset:0;stroke-opacity:1"
       id="path4411"
       cx="474.74109"
       cy="545.45874"
       r="385.71817" />
    <g
       style="font-style:normal;font-variant:normal;font-weight:bold;font-stretch:normal;font-size:76.73529816px;line-height:125%;font-family:'Bebas Neue';-inkscape-font-specification:'Bebas Neue Bold';text-align:start;letter-spacing:0px;word-spacing:0px;writing-mode:lr-tb;text-anchor:start;fill:#f9f9f9;fill-opacity:1;stroke:none"
       id="text4440">
      <path
         d="m 185.14941,633.85193 c 0,6.125 -4.1875,8.8125 -7.375,8.875 -0.3125,0.0625 -1.125,0.1875 -1.375,0.1875 -0.25,0.0625 -0.6875,0.3125 -0.6875,0.8125 0,0.3125 0.6875,0.9375 1,1.125 0.6875,0.5 1.75,0.4375 2.1875,0.4375 2.125,0 6.125,-0.9375 8.6875,-3.4375 1.625,-1.5625 3.5625,-4.375 3.5625,-8.5 0,-3 -1.25,-6.25 -3.0625,-8.25 -2.125,-2.1875 -5.875,-3.875 -11.3125,-3.875 -3.0625,0 -5.6875,0.375 -7.8125,0.375 -0.8125,0 -4.6875,-0.1875 -6.125,-0.1875 -1.0625,0 -1.5625,0.1875 -1.5625,0.9375 0,0.625 0.6875,1.25 1.6875,1.5 2.3125,0.625 3.6875,1 3.8125,2.4375 0.1875,1.4375 0.1875,3.6875 0.1875,8.5625 0,11.125 -0.375,16.6875 -0.5625,18.125 -0.5,3.3125 -0.5,3.875 -3.875,4.8125 -1.375,0.375 -1.8125,0.6875 -1.8125,1.375 0,0.625 1.0625,1 1.9375,1 2.0625,0 6.3125,-0.375 8.5625,-0.375 2.5625,0 3.875,0.25 5.75,0.25 0.75,0 1.6875,-0.375 1.6875,-1 0,-0.6875 -0.5,-1.0625 -1.375,-1.25 -4.3125,-1 -4.6875,-1.5625 -4.6875,-5.875 l 0,-12.875 c 0,-8.4375 0.1875,-12.75 0.25,-14 0,-0.3125 0.25,-0.6875 0.4375,-0.875 0.25,-0.25 0.9375,-0.4375 1.625,-0.4375 3.3125,0 6.375,1.0625 8.125,3.1875 1.25,1.5 2.125,4.125 2.125,6.9375 z"
         style="font-style:normal;font-variant:normal;font-weight:normal;font-stretch:normal;font-size:62.5px;line-height:125%;font-family:'Garamond Premier Pro';-inkscape-font-specification:'Garamond Premier Pro';text-align:start;writing-mode:lr-tb;text-anchor:start;fill:#f9f9f9"
         id="path4595"
         inkscape:connector-curvature="0" />
      <path
         d="m 207.08789,633.66443 c -2.125,0 -5,1.25 -7.375,2.8125 -2.6875,1.875 -4.5,3.8125 -4.5,4.875 0,0.25 0.4375,0.875 0.75,1 0.5625,0.25 2.125,0.3125 2.625,0.3125 0.375,0 1.5,-0.25 1.8125,-0.5 0.25,-0.1875 0.5,-0.6875 0.5625,-1.375 0.125,-1.875 0.375,-2.75 0.625,-3.0625 0.25,-0.25 1.5,-0.8125 2.8125,-0.8125 1.9375,0 4.625,1.0625 5.5,3.5 0.1875,0.5625 0.1875,0.9375 0.1875,1.625 l 0,2.375 c 0,0.375 -0.375,0.8125 -0.6875,0.9375 -1.375,0.75 -4.3125,1.5 -10.625,3 -0.25,0.0625 -1.5625,0.625 -2.5,1.8125 -0.4375,0.5625 -0.9375,1.5 -0.9375,3 0,5.0625 4.0625,7.375 5.9375,7.375 1.125,0 2.1875,-0.3125 3.3125,-0.9375 1.4375,-0.8125 3.5,-2 4.8125,-3 0.125,-0.0625 0.625,0.25 0.625,0.3125 0.8125,3.25 2.8125,3.875 4.4375,3.875 2.125,0 3.625,-1 4.5625,-2.25 0.125,-0.1875 0.5625,-1.375 0.5625,-1.625 0,-0.5 -0.3125,-1.125 -0.5625,-1 -0.5,0.25 -1.625,0.5625 -2.125,0.5625 -1.1875,0 -2.25,-1 -2.25,-3.0625 0,-7 0.25,-9.625 0.25,-12 0,-1.3125 -0.875,-4.25 -2.125,-5.375 -1.8125,-1.6875 -3.375,-2.375 -5.6875,-2.375 z m -2.5,22.6875 c -2.3125,0 -4.1875,-1.875 -4.1875,-3.875 0,-1.5625 0.5625,-2.25 2.3125,-2.875 1.25,-0.4375 4.875,-1.3125 6.6875,-1.625 0.1875,0 0.5,0.125 0.5,0.375 l -0.0625,4 c -0.0625,0.75 -0.3125,1.4375 -0.5,1.875 -1.375,1.3125 -3.375,2.125 -4.75,2.125 z"
         style="font-style:normal;font-variant:normal;font-weight:normal;font-stretch:normal;font-size:62.5px;line-height:125%;font-family:'Garamond Premier Pro';-inkscape-font-specification:'Garamond Premier Pro';text-align:start;writing-mode:lr-tb;text-anchor:start;fill:#f9f9f9"
         id="path4597"
         inkscape:connector-curvature="0" />
      <path
         d="m 223.41113,637.28943 c 0,0.375 0.6875,0.9375 1.375,1.4375 1.5,1.0625 1.5625,1.5 1.5625,1.875 0,3.3125 -0.0625,11 -0.1875,13.8125 -0.0625,1.4375 -0.25,2.375 -2.6875,3.25 -0.75,0.25 -1.4375,0.625 -1.4375,1.3125 0,0.3125 0.5625,1 1.6875,1 1.75,0 2.875,-0.1875 5.0625,-0.1875 1.8125,0 5,0.25 6.9375,0.25 0.75,0 1.5625,-0.5625 1.5625,-1.0625 0,-0.5625 -0.8125,-1.0625 -2.25,-1.4375 -2.8125,-0.75 -3.3125,-1.375 -3.5,-4.3125 -0.1875,-2.1875 -0.125,-11.1875 -0.125,-11.8125 0,-0.375 0.3125,-1.125 0.5625,-1.4375 0.8125,-1.0625 1.75,-1.4375 2.875,-1.4375 0.8125,0 1.75,0.375 2.25,0.75 0.625,0.4375 1,0.625 1.4375,0.625 0.25,0 0.6875,-0.1875 1,-0.5 0.875,-0.6875 2.5,-2.4375 2.5,-3.8125 0,-0.6875 -1.625,-1.9375 -3.4375,-1.9375 -2.4375,0 -4.9375,1.6875 -6.75,3.6875 -0.1875,0.25 -0.625,0 -0.625,-0.1875 l -0.125,-3.0625 c 0,-0.1875 -0.5,-0.875 -0.75,-0.875 -0.5,0 -1,0.25 -1.8125,0.625 -1.3125,0.6875 -3.25,1.5625 -4.25,2.125 -0.5,0.25 -0.875,0.75 -0.875,1.3125 z"
         style="font-style:normal;font-variant:normal;font-weight:normal;font-stretch:normal;font-size:62.5px;line-height:125%;font-family:'Garamond Premier Pro';-inkscape-font-specification:'Garamond Premier Pro';text-align:start;writing-mode:lr-tb;text-anchor:start;fill:#f9f9f9"
         id="path4599"
         inkscape:connector-curvature="0" />
      <path
         d="m 253.93457,634.41443 c -0.4375,0 -0.5,-0.5 -0.5,-0.75 0,-0.375 0.0625,-2.375 0.0625,-3.0625 0,-0.3125 -0.3125,-0.9375 -0.5625,-0.9375 -0.3125,0 -1.5,0.375 -2.5,1.625 -1.125,1.4375 -3.4375,2.875 -4.5,3.75 -0.5625,0.5 -1.3125,1.0625 -1.3125,1.3125 0,0.3125 0.875,1.6875 1.875,1.8125 1.75,0.25 1.9375,0.3125 1.9375,1 0,5.9375 -0.3125,9.75 -0.3125,14.125 0,2.25 0.375,3.6875 0.875,4.4375 1.375,2 3.8125,2.875 5.5,2.875 1.5625,0 4.375,-0.4375 6.375,-1.9375 1,-0.75 1.5,-1.5 1.5,-2.1875 0,-0.5 -0.3125,-0.9375 -0.5625,-0.9375 -0.375,0 -0.8125,0.25 -1.375,0.375 -0.9375,0.25 -1.75,0.5625 -2.875,0.5625 -0.75,0 -2.5625,-0.5 -3.375,-1.375 -0.75,-0.875 -1,-1.875 -0.9375,-4.6875 l 0.1875,-11.375 c 0,-0.6875 0.3125,-0.9375 0.4375,-0.9375 1.4375,0 4.75,-0.0625 7.0625,-0.0625 0.6875,0 1.25,-0.125 1.4375,-0.8125 0.0625,-0.3125 0.0625,-1.3125 0.0625,-2 -0.0625,-0.375 -0.375,-1.0625 -0.8125,-1.0625 -1.4375,0 -7,0.25 -7.6875,0.25 z"
         style="font-style:normal;font-variant:normal;font-weight:normal;font-stretch:normal;font-size:62.5px;line-height:125%;font-family:'Garamond Premier Pro';-inkscape-font-specification:'Garamond Premier Pro';text-align:start;writing-mode:lr-tb;text-anchor:start;fill:#f9f9f9"
         id="path4601"
         inkscape:connector-curvature="0" />
      <path
         d="m 283.50684,659.16443 c 0,0.5625 0.6875,0.9375 2,0.9375 2.125,0 4,-0.3125 8,-0.3125 1.9375,0 2.75,0.0625 5.4375,0.0625 1.3125,0 1.75,-0.4375 1.75,-0.9375 0,-0.5625 -0.5625,-0.9375 -1.5625,-1.25 -3.375,-1 -3.75,-1.125 -3.8125,-5.625 l 0,-19 c 0,-5.625 0.125,-9.3125 0.125,-10.375 0,-0.25 -0.3125,-0.625 -0.75,-0.5625 -0.1875,0.125 -0.875,0.375 -2.0625,0.9375 -2,0.9375 -4.6875,1.5625 -7.25,2.25 -0.875,0.25 -1.1875,1.125 -1.1875,1.4375 0,0.3125 0.6875,0.5625 1.375,0.6875 0.75,0.125 2.5,0.1875 3.5,0.3125 0.4375,0.0625 0.6875,0.8125 0.75,1.125 0.125,1.4375 0.0625,4.3125 0.0625,6.5 0,2.9375 -0.1875,13.9375 -0.375,18 -0.125,2.875 -0.3125,3.3125 -3.875,4.3125 -1.25,0.3125 -2.125,0.6875 -2.125,1.5 z"
         style="font-style:normal;font-variant:normal;font-weight:normal;font-stretch:normal;font-size:62.5px;line-height:125%;font-family:'Garamond Premier Pro';-inkscape-font-specification:'Garamond Premier Pro';text-align:start;writing-mode:lr-tb;text-anchor:start;fill:#f9f9f9"
         id="path4603"
         inkscape:connector-curvature="0" />
      <path
         d="m 315.21484,652.78943 c -1.375,0 -3.75,1.125 -3.75,4 0,2.375 1.5625,3.6875 3.4375,3.6875 2.3125,0 4,-1.6875 4,-3.75 0,-1.8125 -1.0625,-3.9375 -3.6875,-3.9375 z m 0.125,-17.9375 c -1.625,0 -3.875,1.3125 -3.875,4.1875 0,1.9375 1.75,3.875 3.625,3.875 2.25,0 4.125,-2.0625 4.125,-4 0,-1.75 -1.25,-4.0625 -3.875,-4.0625 z"
         style="font-style:normal;font-variant:normal;font-weight:normal;font-stretch:normal;font-size:62.5px;line-height:125%;font-family:'Garamond Premier Pro';-inkscape-font-specification:'Garamond Premier Pro';text-align:start;writing-mode:lr-tb;text-anchor:start;fill:#f9f9f9"
         id="path4605"
         inkscape:connector-curvature="0" />
      <path
         d="m 381.25293,618.78943 c -0.75,0 -1.1875,0.3125 -1.8125,1.0625 -1.1875,1.5625 -1.6875,1.75 -4.9375,1.75 l -23.5625,0 c -2,0 -3.4375,0 -6,-0.125 -1.8125,-0.0625 -2.375,-0.375 -3.5,-1.6875 -0.375,-0.375 -0.6875,-0.5625 -0.875,-0.5625 -0.3125,0 -1.4375,0.625 -1.375,1.125 0.1875,2.875 -0.5625,6.1875 -0.6875,8.125 -0.0625,1.5625 0.125,2.4375 1.1875,2.4375 0.5625,0 1.0625,-0.6875 1.4375,-1.75 1.4375,-3.8125 2.5,-4.4375 7.125,-4.5625 2.25,-0.0625 4.625,0 6.1875,0 0.8125,0 0.9375,0.4375 0.9375,1.5 l 0,8 c 0,10.4375 -0.1875,16.5 -0.1875,17.8125 0,3.625 -1.0625,4.5625 -5.4375,5.625 -1.1875,0.25 -1.8125,0.75 -1.8125,1.25 0,0.6875 0.625,1.1875 1.9375,1.1875 1.6875,0 3.3125,-0.1875 7.125,-0.1875 3.75,0 8.25,0.1875 8.875,0.1875 1.25,0 1.875,-0.5625 1.875,-1.0625 0,-0.75 -0.625,-1.125 -1.8125,-1.4375 -2.9375,-0.8125 -4.8125,-1.25 -4.8125,-5.8125 l 0,-18.6875 c 0,-3.9375 0.1875,-6.6875 0.25,-7.5625 0.0625,-0.625 0.5,-0.8125 0.8125,-0.8125 5.3125,0 11.75,0.125 12.6875,0.25 1.375,0.125 2.125,0.8125 2.125,2.5 0.125,1.75 0.125,4.5625 0.125,12.4375 0,11.3125 -0.25,14 -0.375,15.1875 -0.125,1.4375 -0.9375,2.1875 -2.6875,2.75 -1,0.3125 -1.75,0.625 -1.75,1.3125 0,0.5625 0.625,0.9375 1.875,0.9375 1.0625,0 3.75,-0.1875 5.375,-0.1875 1.6875,0 3.375,0.1875 4.4375,0.1875 0.875,0 1.5625,-0.375 1.5625,-1.125 0,-0.375 -0.5,-0.875 -1.1875,-1.125 -1.625,-0.625 -2.1875,-1.125 -2.25,-2.4375 -0.125,-1.4375 0,-13.75 0,-15.0625 0,-0.3125 0.375,-1.0625 0.75,-1.4375 0.5,-0.5 1.9375,-1.6875 5.5,-1.6875 1.75,0 3.6875,0.9375 4.5625,2 0.8125,1.0625 1.4375,2.25 1.5,4.0625 0.0625,2.75 0,9.6875 0,11.1875 0,2.25 -0.375,2.75 -2.4375,3.4375 -1,0.375 -1.375,0.875 -1.375,1.25 0,0.625 0.75,0.9375 1.8125,0.9375 1.6875,0 3.25,-0.1875 4.5625,-0.1875 1.75,0 3,0.1875 4.6875,0.1875 0.6875,0 1.75,-0.25 1.75,-1 0,-0.5625 -0.5625,-1 -1.5,-1.4375 -1.875,-0.8125 -2.25,-1.1875 -2.25,-2.5625 0,-0.9375 -0.1875,-8.375 -0.25,-10.4375 0,-3.3125 -0.8125,-6.4375 -2.3125,-8.0625 -1.125,-1.3125 -3,-2.8125 -6.5,-2.8125 -2.9375,0 -5.8125,1.25 -8.0625,2.8125 -0.1875,0.125 -0.4375,-0.125 -0.4375,-0.8125 0,-2.8125 0.1875,-11.6875 0.1875,-13.9375 0,-1.8125 -0.5,-2.9375 -1.0625,-2.9375 z"
         style="font-style:normal;font-variant:normal;font-weight:normal;font-stretch:normal;font-size:62.5px;line-height:125%;font-family:'Garamond Premier Pro';-inkscape-font-specification:'Garamond Premier Pro';text-align:start;writing-mode:lr-tb;text-anchor:start;fill:#f9f9f9"
         id="path4607"
         inkscape:connector-curvature="0" />
      <path
         d="m 421.16895,633.66443 c -2.625,0 -5.25,0.75 -7.3125,2.125 -3.75,2.4375 -6.0625,6.75 -6.0625,11.8125 0,7.625 4.4375,12.9375 12.25,12.9375 3.3125,0 6.625,-1.4375 8.9375,-3.875 0.5,-0.5625 0.8125,-1.25 0.8125,-1.9375 0,-0.6875 -0.5,-1 -0.75,-0.8125 -1.1875,0.8125 -3.875,2.375 -6.3125,2.375 -5.375,0 -9.5625,-4.25 -9.5625,-9.8125 0,-0.375 0.0625,-1.5 0.3125,-1.9375 0.125,-0.3125 0.8125,-0.6875 1,-0.6875 1.125,0 13,-0.1875 13.4375,-0.1875 0.625,0 1.6875,-1.1875 1.6875,-1.875 0,-1.5625 -0.25,-3.1875 -1.0625,-4.375 -1.5,-2.4375 -4.375,-3.75 -7.375,-3.75 z m -1.875,2.25 c 3.3125,0 4.8125,1.6875 4.8125,3.5625 0,2.125 -2.875,2.25 -5.25,2.25 -1.8125,0 -3.875,-0.0625 -4.5625,-0.125 -0.125,0 -0.4375,-0.375 -0.375,-0.625 0.8125,-3.125 3.8125,-5.0625 5.375,-5.0625 z"
         style="font-style:normal;font-variant:normal;font-weight:normal;font-stretch:normal;font-size:62.5px;line-height:125%;font-family:'Garamond Premier Pro';-inkscape-font-specification:'Garamond Premier Pro';text-align:start;writing-mode:lr-tb;text-anchor:start;fill:#f9f9f9"
         id="path4609"
         inkscape:connector-curvature="0" />
      <path
         d="m 462.46094,618.66443 c -4.4375,0 -7.375,1.25 -9.375,3 -2.0625,1.8125 -3.5,4.6875 -3.5,7.75 0,5.375 3.6875,9 9.25,12.5625 6.375,4.0625 7.625,6.8125 7.625,9.5 0,4.375 -3.375,7.25 -7.3125,7.25 -2.5625,0 -6.5625,-1.6875 -8.25,-5.1875 -0.875,-1.9375 -1.875,-3.5 -2.375,-3.5 -0.25,0 -0.875,0.875 -0.875,1.1875 0,1.125 0.5625,3.9375 0.9375,6.0625 0,0.1875 0.875,1.625 1.5,1.9375 2.0625,1 6,1.625 8.375,1.625 2.875,0 6.5,-0.9375 8.5,-2.25 3.4375,-2.1875 5.25,-5.75 5.25,-8.875 0,-5.25 -3.3125,-8.6875 -8.75,-12.1875 -5.5625,-3.6875 -8.625,-5.625 -8.625,-9.875 0,-4.1875 3.0625,-7.1875 7,-7.1875 1.8125,0 3.375,0.5625 4.5625,1.5 0.625,0.4375 2.25,2.3125 3,4.5 0.25,0.875 1.0625,1.3125 1.5625,1.3125 0.4375,0 0.5,-0.5625 0.5,-1.625 0,-0.25 -0.5625,-4.125 -0.625,-5.1875 -0.0625,-0.1875 -0.4375,-1.125 -0.8125,-1.25 -1.25,-0.1875 -4.5,-1.0625 -7.5625,-1.0625 z"
         style="font-style:normal;font-variant:normal;font-weight:500;font-stretch:normal;font-family:'Garamond Premier Pro';-inkscape-font-specification:'Garamond Premier Pro Medium'"
         id="path4611"
         inkscape:connector-curvature="0" />
      <path
         d="m 491.78809,634.47693 c -2.125,0 -5.5625,1.0625 -7.4375,2.1875 -2.4375,1.5 -6.5,5 -6.5,11.5625 0,3.0625 1.1875,6.5625 3.1875,8.5625 1.9375,2.125 4.9375,3.75 9.0625,3.75 1.9375,0 4.75,-1.0625 7.0625,-2.25 0.1875,-0.0625 0.3125,0.3125 0.3125,0.625 0,4.0625 -0.1875,10.8125 -0.3125,12.1875 -0.125,1.375 -0.25,2.8125 -4.0625,3.625 -0.8125,0.125 -1.5,0.5625 -1.5,1 0,0.5625 0.8125,0.75 1.625,0.75 2.25,0 7.1875,-0.75 12.25,-0.75 1,0 1.625,-0.375 1.625,-0.875 0,-0.375 -0.875,-0.8125 -1.375,-0.875 -2.9375,-0.5 -3.1875,-1.125 -3.25,-3.375 -0.1875,-4.0625 -0.1875,-8.875 -0.1875,-13.25 0,-6.75 0.0625,-19.625 0.6875,-22.1875 0.1875,-0.8125 -0.125,-1.1875 -0.375,-1.1875 -0.375,0 -1.125,0.375 -1.625,0.875 -0.6875,0.625 -1.375,0.9375 -1.5,0.9375 -0.375,0 -1.1875,-0.3125 -2.3125,-0.6875 -1.4375,-0.4375 -3.6875,-0.625 -5.375,-0.625 z m -1.5625,2 c 2.0625,0 4.5625,1.3125 5.8125,3.1875 0.4375,0.625 1,2.875 1.125,3.625 0.1875,1.9375 0.3125,9.125 0.3125,11.4375 0,0.5 -0.375,1.8125 -0.6875,2 -0.6875,0.5 -2.625,0.9375 -3.4375,0.9375 -2.1875,0 -4.9375,-0.8125 -6.75,-2.5625 -1.875,-2 -3.0625,-4.6875 -3.0625,-8.4375 0,-5.125 1.6875,-7.5625 3.3125,-8.9375 1.125,-1 2.375,-1.25 3.375,-1.25 z"
         style="font-style:normal;font-variant:normal;font-weight:500;font-stretch:normal;font-family:'Garamond Premier Pro';-inkscape-font-specification:'Garamond Premier Pro Medium'"
         id="path4613"
         inkscape:connector-curvature="0" />
      <path
         d="m 521.86816,657.28943 c -1.4375,0 -2.5625,-0.1875 -4.0625,-1.25 -0.8125,-0.6875 -1.5,-2 -1.5,-3.375 0,-2.8125 0.1875,-14.125 0.1875,-16.8125 0,-0.3125 -0.25,-0.9375 -0.5,-0.9375 -0.25,0 -5.3125,0.6875 -7.0625,0.6875 -0.75,0 -1.0625,0.375 -1.0625,0.625 0,0.5625 0.5625,0.9375 1.125,1.1875 1.0625,0.4375 2.1875,0.6875 2.25,2.4375 0.125,3.3125 0.125,10.1875 0.125,14.625 0,1 0.4375,2.375 0.875,3.0625 1.25,2 3.25,3 5.625,3 1.8125,0 3.125,-0.375 4.1875,-0.8125 0.8125,-0.3125 3.25,-1.8125 4.9375,-3.0625 0.125,-0.0625 0.375,0.125 0.375,0.375 -0.0625,1.0625 -0.25,2.3125 -0.25,2.6875 0,0.4375 0.4375,0.875 0.6875,0.875 0.125,0 1.3125,-0.3125 2.375,-0.625 1.4375,-0.375 4.25,-1.125 5.8125,-1.25 0.3125,0 0.75,-0.4375 0.75,-0.625 -0.0625,-0.1875 -0.5,-1.3125 -0.75,-1.3125 -0.8125,0 -2.625,0.375 -3.125,0.375 -0.5,0 -0.6875,-0.75 -0.6875,-0.9375 0,-4.4375 0.375,-18.75 0.5,-20.625 0,-0.25 -0.125,-0.9375 -0.4375,-0.9375 -0.4375,0 -0.875,0.0625 -1.5,0.25 -1.5,0.375 -4.5625,0.6875 -7.0625,0.6875 -0.5625,0 -1.3125,0.375 -1.3125,0.625 0,0.5 0.75,0.875 1.1875,1 0.625,0.125 1.8125,0.5625 2.8125,0.8125 0.4375,0.1875 1,1 1,1.375 l -0.0625,14.3125 c 0,0.25 -0.5,1.1875 -0.875,1.4375 -1.5625,1.375 -3.1875,2.125 -4.5625,2.125 z"
         style="font-style:normal;font-variant:normal;font-weight:500;font-stretch:normal;font-family:'Garamond Premier Pro';-inkscape-font-specification:'Garamond Premier Pro Medium'"
         id="path4615"
         inkscape:connector-curvature="0" />
      <path
         d="m 550.13281,634.47693 c -1.125,0 -3.9375,1 -5.875,2.375 -3.125,2.0625 -4.8125,3.8125 -4.8125,5.5625 0,0.375 0.375,0.875 0.75,0.875 0.3125,0 3.75,-1.6875 4.375,-2.1875 0.125,-0.125 0.3125,-0.4375 0.3125,-0.625 -0.0625,-1.4375 0.125,-2.4375 0.4375,-2.625 0.4375,-0.3125 1.25,-0.625 2.4375,-0.625 3.0625,0 4.75,2.5625 4.75,4.125 0.0625,0.75 -0.0625,4.5 -0.125,5.0625 0,0.375 -0.375,0.6875 -1.6875,1.125 -1.375,0.4375 -6.5,1.8125 -7.5,2.25 -0.875,0.375 -1.875,0.6875 -2.5,1.5 -0.6875,0.875 -1.1875,2.125 -1.1875,3.25 0,3.1875 2.1875,5.875 4.4375,5.875 0.4375,0 1.875,-0.125 2.5625,-0.375 0.6875,-0.25 3.3125,-1.3125 5.5,-2.8125 0.125,-0.0625 0.375,0.125 0.4375,0.25 0.75,2.3125 2.5625,3.0625 4.0625,3.0625 3,0 5.8125,-2.75 5.8125,-3.9375 0,-0.0625 0,-0.5 -0.125,-0.6875 -0.125,-0.1875 -0.1875,-0.25 -0.375,-0.1875 -0.75,0.4375 -2.125,0.9375 -2.375,0.9375 -0.625,0 -2.4375,-0.375 -2.4375,-3 0,-0.6875 0.25,-8.4375 0.25,-10.875 0,-2.6875 -0.4375,-4 -1.3125,-5.25 -0.9375,-1.375 -2.5625,-3.0625 -5.8125,-3.0625 z m -1.875,22.5625 c -1.25,0 -3.75,-1 -3.75,-3.75 0,-1.5625 0.5,-2 1.1875,-2.375 1.5625,-0.875 4.5625,-1.875 6.1875,-1.875 0.1875,0 0.4375,0.3125 0.4375,0.5 0,1.4375 -0.0625,3.6875 -0.125,5 -0.0625,0.1875 -0.375,1.3125 -0.75,1.5 -1.0625,0.625 -2.3125,1 -3.1875,1 z"
         style="font-style:normal;font-variant:normal;font-weight:500;font-stretch:normal;font-family:'Garamond Premier Pro';-inkscape-font-specification:'Garamond Premier Pro Medium'"
         id="path4617"
         inkscape:connector-curvature="0" />
      <path
         d="m 565.09473,637.78943 c 0,0.25 0.8125,0.75 2.1875,1.8125 0.625,0.4375 0.625,1.25 0.625,2 l 0,11.625 c -0.0625,3.75 -0.25,4.375 -2.625,5.1875 -0.4375,0.1875 -1.25,0.4375 -1.25,0.8125 0,0.5625 0.625,0.8125 1.3125,0.8125 1.5,0 2.375,-0.25 4.125,-0.25 3.625,0 6.0625,0.3125 7.6875,0.3125 1,0 1.5625,-0.25 1.5625,-0.625 0,-0.25 -0.1875,-0.6875 -1.1875,-1 -0.875,-0.25 -2.0625,-0.5625 -2.8125,-0.6875 -1.0625,-0.25 -1.5,-1.4375 -1.625,-3.25 -0.0625,-0.9375 -0.3125,-12.125 -0.3125,-13.375 0,-0.4375 0.1875,-0.9375 0.625,-1.375 0.5625,-0.625 1.5,-0.75 2.4375,-0.75 1.25,0 2.875,0.8125 3.5625,1.4375 0.1875,0.125 0.8125,0.25 0.9375,0.1875 0.4375,-0.1875 1.9375,-2 2.6875,-3.0625 0.1875,-0.3125 0.375,-0.75 0.375,-0.9375 0,-0.5625 -0.625,-2.1875 -3.25,-2.1875 -1.9375,0 -4.6875,1.625 -7.0625,3.875 -0.0625,0.125 -0.375,0 -0.375,-0.25 0,-1.1875 0.125,-2.3125 0.125,-3.4375 0,-0.1875 -0.3125,-0.6875 -0.625,-0.6875 -0.1875,0 -0.5625,0.1875 -1.3125,0.6875 -0.75,0.4375 -2.875,1.375 -5,2.125 -0.625,0.1875 -0.8125,0.875 -0.8125,1 z"
         style="font-style:normal;font-variant:normal;font-weight:500;font-stretch:normal;font-family:'Garamond Premier Pro';-inkscape-font-specification:'Garamond Premier Pro Medium'"
         id="path4619"
         inkscape:connector-curvature="0" />
      <path
         d="m 597.52832,634.60193 c -1.1875,0 -3.25,0.3125 -4.875,1.0625 -4.9375,2.3125 -7.5625,7.3125 -7.5625,12.3125 0,7.25 4.4375,12.4375 11.25,12.4375 3.9375,0 7.1875,-1.6875 9.3125,-4.8125 0.1875,-0.375 0.5,-1.0625 0.5,-1.5625 0,-0.25 -0.1875,-0.75 -0.5625,-0.75 -0.25,0 -0.5625,0.4375 -0.8125,0.75 -1.0625,1.5625 -2.9375,2.25 -5.625,2.25 -3,0 -5.625,-1.5 -7.0625,-3.375 -1.3125,-1.75 -2.25,-4.625 -2.25,-6.8125 0,-0.6875 0.0625,-1.6875 0.25,-2.1875 0.0625,-0.25 0.375,-0.5 0.5625,-0.5 2.875,0.0625 13.4375,0.0625 14.125,0.0625 0.6875,0 1.25,-0.8125 1.25,-1.1875 0,-2.1875 -0.875,-4 -2.1875,-5.3125 -1.625,-1.5625 -4.0625,-2.375 -6.3125,-2.375 z m -0.625,1.5625 c 2.1875,0 4,2.0625 4,3.8125 0,1.3125 -0.75,1.6875 -2.125,1.6875 -3.125,0.0625 -6.125,0.0625 -7.75,0 -0.1875,0 -0.4375,-0.375 -0.3125,-0.6875 1.0625,-2.875 3.4375,-4.8125 6.1875,-4.8125 z"
         style="font-style:normal;font-variant:normal;font-weight:500;font-stretch:normal;font-family:'Garamond Premier Pro';-inkscape-font-specification:'Garamond Premier Pro Medium'"
         id="path4621"
         inkscape:connector-curvature="0" />
    </g>
    <g
       style="font-style:normal;font-variant:normal;font-weight:bold;font-stretch:normal;font-size:119.09403992px;line-height:75.99999905%;font-family:'Bebas Neue';-inkscape-font-specification:'Bebas Neue Bold';text-align:start;letter-spacing:0px;word-spacing:0px;writing-mode:lr-tb;text-anchor:start;fill:#f9f9f9;fill-opacity:1;stroke:none"
       id="text4463">
      <path
         d="m 210.61961,425.98709 c -11.125,0 -22.625,3.875 -30,9.5 -9.75,7.375 -15.625,17.75 -15.625,30.375 0,9.125 2.5,17.75 7.75,24.625 6.875,9.25 20,16.375 38,16.375 6.125,0 11.25,-1.125 16.25,-2.25 5.5,-1.125 6.5,-2.375 10.25,-3.5 0.75,-0.25 1.75,-1.5 1.75,-2.125 0,-0.875 -0.125,-1.375 -0.25,-2.25 -0.25,-1.625 -0.75,-4.125 -0.75,-9.625 0,-2.75 0,-6.875 0.25,-9.75 0.125,-1.625 0.625,-3.25 4.625,-4.625 2.375,-0.75 3.625,-1.875 3.625,-2.625 0,-1.5 -1.25,-2.375 -3.25,-2.375 -2.5,0 -9.125,0.625 -12.875,0.625 -4.125,0 -7.375,-0.375 -10.875,-0.375 -2.625,0 -4.25,1.25 -4.25,2 0,1.25 0.375,2.5 5.25,3.25 4.5,0.875 5.625,1.625 5.875,3.5 0.125,1.625 0.25,8.375 0.25,13.125 0,4.625 -2.5,8.375 -3.375,9 -2.75,2.125 -8.625,2.5 -10.875,2.5 -20.125,0 -33.5,-16.375 -33.5,-35.625 0,-18.375 11.25,-34.5 30.625,-34.5 6.875,0 14,2.875 18.625,7.25 3,2.875 4.75,5.125 6.375,8.625 1.125,2.125 2.125,2.875 3.375,2.875 1.625,0 2.125,-2.125 2.125,-3.125 0,-5 -2.25,-11.625 -3.375,-14.625 -0.625,-1.875 -1,-2.125 -2.875,-2.5 -2.125,-0.5 -2.75,-0.125 -5.375,-0.875 -5.25,-1.375 -10,-2.875 -17.75,-2.875 z"
         style="font-style:normal;font-variant:normal;font-weight:normal;font-stretch:normal;font-size:125px;line-height:75.99999905%;font-family:'Garamond Premier Pro';-inkscape-font-specification:'Garamond Premier Pro';text-align:start;writing-mode:lr-tb;text-anchor:start;fill:#f9f9f9"
         id="path4624"
         inkscape:connector-curvature="0" />
      <path
         d="m 283.26219,452.36209 c -5.25,0 -10.5,1.5 -14.625,4.25 -7.5,4.875 -12.125,13.5 -12.125,23.625 0,15.25 8.875,25.875 24.5,25.875 6.625,0 13.25,-2.875 17.875,-7.75 1,-1.125 1.625,-2.5 1.625,-3.875 0,-1.375 -1,-2 -1.5,-1.625 -2.375,1.625 -7.75,4.75 -12.625,4.75 -10.75,0 -19.125,-8.5 -19.125,-19.625 0,-0.75 0.125,-3 0.625,-3.875 0.25,-0.625 1.625,-1.375 2,-1.375 2.25,0 26,-0.375 26.875,-0.375 1.25,0 3.375,-2.375 3.375,-3.75 0,-3.125 -0.5,-6.375 -2.125,-8.75 -3,-4.875 -8.75,-7.5 -14.75,-7.5 z m -3.75,4.5 c 6.625,0 9.625,3.375 9.625,7.125 0,4.25 -5.75,4.5 -10.5,4.5 -3.625,0 -7.75,-0.125 -9.125,-0.25 -0.25,0 -0.875,-0.75 -0.75,-1.25 1.625,-6.25 7.625,-10.125 10.75,-10.125 z"
         style="font-style:normal;font-variant:normal;font-weight:normal;font-stretch:normal;font-size:125px;line-height:75.99999905%;font-family:'Garamond Premier Pro';-inkscape-font-specification:'Garamond Premier Pro';text-align:start;writing-mode:lr-tb;text-anchor:start;fill:#f9f9f9"
         id="path4626"
         inkscape:connector-curvature="0" />
      <path
         d="m 336.97899,452.36209 c -6.5,0 -13.375,2.875 -17.5,6.375 -5.5,4.375 -10,12 -10,20.75 0,5.625 2,13.25 7.375,18.5 5.25,5.125 12.375,8.125 19.75,8.125 8.25,0 14.375,-3.375 18.875,-7.5 4.25,-3.875 8.125,-10.625 8.125,-20.125 -0.125,-11.5 -9.375,-26.125 -26.625,-26.125 z m -1.875,5.25 c 10.625,0 16.25,11.125 16.25,21.75 0,7.25 -0.75,13.375 -3.375,16.75 -2.5,3.125 -6.5,4.875 -9.5,4.875 -4.625,0 -8.25,-2.375 -9.5,-3.375 -5.125,-4.375 -7.5,-13 -7.5,-20 0,-9.5 3.875,-15.125 5.125,-16.5 1.75,-1.875 5.75,-3.5 8.5,-3.5 z"
         style="font-style:normal;font-variant:normal;font-weight:normal;font-stretch:normal;font-size:125px;line-height:75.99999905%;font-family:'Garamond Premier Pro';-inkscape-font-specification:'Garamond Premier Pro';text-align:start;writing-mode:lr-tb;text-anchor:start;fill:#f9f9f9"
         id="path4628"
         inkscape:connector-curvature="0" />
      <path
         d="m 375.81297,460.11209 c 0,0.375 0.5,0.875 2.75,2.625 2.125,1.625 2.75,3.25 2.75,4.5 0,11.5 -0.25,21.625 -0.5,26.25 -0.125,4 -0.625,5 -5.5,7 -1.875,0.75 -3,1.5 -3,2.625 0,1.125 1.375,2.125 3.5,2.125 2.875,0 5.625,-0.625 8.5,-0.625 3.75,0 7.875,0.375 10.875,0.375 1.875,0 3.125,-0.875 3.125,-2.125 0,-0.875 -0.375,-1.5 -2.75,-2.75 -2.25,-1.125 -3.875,-2 -4.125,-5.5 -0.25,-3.25 -0.25,-6.125 -0.25,-28.125 0,-0.375 1.125,-3 1.375,-3.25 2.5,-1.75 5.875,-3.375 10.75,-3.375 4.875,0 7.875,1.625 9.625,3.875 0.125,0.25 1.875,3 1.875,5.5 l -0.375,24 c -0.125,4.875 -1.625,5.625 -5,6.875 -2,0.75 -3.125,1.5 -3.125,2.5 0,1 1.75,2.25 3.75,2.25 2.75,0 6.125,-0.25 8.875,-0.25 3.25,0 7.25,0.25 10.5,0.25 1.5,0 3,-0.75 3,-2.125 0,-1.375 -0.75,-2.125 -3.25,-3 -2.75,-0.875 -4.25,-2.5 -4.375,-5.375 -0.25,-2.875 -0.375,-7.5 -0.375,-27.125 0,-1.5 0.75,-3.375 1.25,-3.875 0.875,-0.75 5.625,-3.125 11,-3.125 4.625,0 7.625,1.875 9.125,4.125 1.5,2.375 1.875,4.375 2,9.25 0,5.375 0.125,15.125 0.125,21.125 0,2.75 -0.875,4.625 -4,5.5 -2.375,0.625 -3,2 -3,2.5 0,1 1.5,2.125 3.5,2.125 2.875,0 6.375,-0.25 9.25,-0.25 2.875,0 6.75,0.25 9.625,0.25 1.125,0 2.75,-0.5 2.75,-2 0,-1.25 -1.25,-1.875 -2.875,-2.5 -2.125,-0.75 -4.75,-2.25 -4.75,-4.375 0,-3.125 -0.5,-16.875 -0.875,-24.75 -0.375,-8.625 -4.5,-18.875 -15.5,-18.875 -3.875,0 -5.875,0.625 -8.625,1.75 -3.25,1.375 -7.375,4 -9.25,5.375 -0.5,0.25 -1.5,-0.125 -1.625,-0.375 -1.875,-2.875 -5.75,-6.75 -13.125,-6.75 -6.75,0 -13.75,4 -17.25,6.375 -0.625,0.5 -1.25,-0.125 -1.25,-0.625 l 0,-5.25 c 0,-0.25 -1.125,-1.375 -2,-1.375 -0.25,0 -0.5,0.125 -1.375,0.75 -4.125,2.625 -6.875,3.75 -9.625,4.875 -1,0.5 -2.125,2 -2.125,3 z"
         style="font-style:normal;font-variant:normal;font-weight:normal;font-stretch:normal;font-size:125px;line-height:75.99999905%;font-family:'Garamond Premier Pro';-inkscape-font-specification:'Garamond Premier Pro';text-align:start;writing-mode:lr-tb;text-anchor:start;fill:#f9f9f9"
         id="path4630"
         inkscape:connector-curvature="0" />
      <path
         d="m 501.03563,452.36209 c -5.25,0 -10.5,1.5 -14.625,4.25 -7.5,4.875 -12.125,13.5 -12.125,23.625 0,15.25 8.875,25.875 24.5,25.875 6.625,0 13.25,-2.875 17.875,-7.75 1,-1.125 1.625,-2.5 1.625,-3.875 0,-1.375 -1,-2 -1.5,-1.625 -2.375,1.625 -7.75,4.75 -12.625,4.75 -10.75,0 -19.125,-8.5 -19.125,-19.625 0,-0.75 0.125,-3 0.625,-3.875 0.25,-0.625 1.625,-1.375 2,-1.375 2.25,0 26,-0.375 26.875,-0.375 1.25,0 3.375,-2.375 3.375,-3.75 0,-3.125 -0.5,-6.375 -2.125,-8.75 -3,-4.875 -8.75,-7.5 -14.75,-7.5 z m -3.75,4.5 c 6.625,0 9.625,3.375 9.625,7.125 0,4.25 -5.75,4.5 -10.5,4.5 -3.625,0 -7.75,-0.125 -9.125,-0.25 -0.25,0 -0.875,-0.75 -0.75,-1.25 1.625,-6.25 7.625,-10.125 10.75,-10.125 z"
         style="font-style:normal;font-variant:normal;font-weight:normal;font-stretch:normal;font-size:125px;line-height:75.99999905%;font-family:'Garamond Premier Pro';-inkscape-font-specification:'Garamond Premier Pro';text-align:start;writing-mode:lr-tb;text-anchor:start;fill:#f9f9f9"
         id="path4632"
         inkscape:connector-curvature="0" />
      <path
         d="m 544.25243,453.86209 c -0.875,0 -1,-1 -1,-1.5 0,-0.75 0.125,-4.75 0.125,-6.125 0,-0.625 -0.625,-1.875 -1.125,-1.875 -0.625,0 -3,0.75 -5,3.25 -2.25,2.875 -6.875,5.75 -9,7.5 -1.125,1 -2.625,2.125 -2.625,2.625 0,0.625 1.75,3.375 3.75,3.625 3.5,0.5 3.875,0.625 3.875,2 0,11.875 -0.625,19.5 -0.625,28.25 0,4.5 0.75,7.375 1.75,8.875 2.75,4 7.625,5.75 11,5.75 3.125,0 8.75,-0.875 12.75,-3.875 2,-1.5 3,-3 3,-4.375 0,-1 -0.625,-1.875 -1.125,-1.875 -0.75,0 -1.625,0.5 -2.75,0.75 -1.875,0.5 -3.5,1.125 -5.75,1.125 -1.5,0 -5.125,-1 -6.75,-2.75 -1.5,-1.75 -2,-3.75 -1.875,-9.375 l 0.375,-22.75 c 0,-1.375 0.625,-1.875 0.875,-1.875 2.875,0 9.5,-0.125 14.125,-0.125 1.375,0 2.5,-0.25 2.875,-1.625 0.125,-0.625 0.125,-2.625 0.125,-4 -0.125,-0.75 -0.75,-2.125 -1.625,-2.125 -2.875,0 -14,0.5 -15.375,0.5 z"
         style="font-style:normal;font-variant:normal;font-weight:normal;font-stretch:normal;font-size:125px;line-height:75.99999905%;font-family:'Garamond Premier Pro';-inkscape-font-specification:'Garamond Premier Pro';text-align:start;writing-mode:lr-tb;text-anchor:start;fill:#f9f9f9"
         id="path4634"
         inkscape:connector-curvature="0" />
      <path
         d="m 569.87547,459.61209 c 0,0.75 1.375,1.875 2.75,2.875 3,2.125 3.125,3 3.125,3.75 0,6.625 -0.125,22 -0.375,27.625 -0.125,2.875 -0.5,4.75 -5.375,6.5 -1.5,0.5 -2.875,1.25 -2.875,2.625 0,0.625 1.125,2 3.375,2 3.5,0 5.75,-0.375 10.125,-0.375 3.625,0 10,0.5 13.875,0.5 1.5,0 3.125,-1.125 3.125,-2.125 0,-1.125 -1.625,-2.125 -4.5,-2.875 -5.625,-1.5 -6.625,-2.75 -7,-8.625 -0.375,-4.375 -0.25,-22.375 -0.25,-23.625 0,-0.75 0.625,-2.25 1.125,-2.875 1.625,-2.125 3.5,-2.875 5.75,-2.875 1.625,0 3.5,0.75 4.5,1.5 1.25,0.875 2,1.25 2.875,1.25 0.5,0 1.375,-0.375 2,-1 1.75,-1.375 5,-4.875 5,-7.625 0,-1.375 -3.25,-3.875 -6.875,-3.875 -4.875,0 -9.875,3.375 -13.5,7.375 -0.375,0.5 -1.25,0 -1.25,-0.375 l -0.25,-6.125 c 0,-0.375 -1,-1.75 -1.5,-1.75 -1,0 -2,0.5 -3.625,1.25 -2.625,1.375 -6.5,3.125 -8.5,4.25 -1,0.5 -1.75,1.5 -1.75,2.625 z"
         style="font-style:normal;font-variant:normal;font-weight:normal;font-stretch:normal;font-size:125px;line-height:75.99999905%;font-family:'Garamond Premier Pro';-inkscape-font-specification:'Garamond Premier Pro';text-align:start;writing-mode:lr-tb;text-anchor:start;fill:#f9f9f9"
         id="path4636"
         inkscape:connector-curvature="0" />
      <path
         d="m 612.4536,455.23709 c 0,1 1.125,1.875 3.25,2.75 2,0.75 4.875,2 6.75,5.625 2.75,5.5 9.125,21.125 12.375,30.375 l 3.125,8 c 0.25,0.625 0.375,2.875 0.25,3.5 -1.25,3.5 -4.375,11.125 -4.875,12.375 -0.5,1.25 -1.5,2.75 -2.375,2.75 l -3.25,0 c -4,0 -6.875,3.5 -6.875,6.625 0,4.5 3.125,7.125 7,7.125 2.75,0 5.75,-2.75 5.875,-3.375 1.125,-3.625 9.125,-22.75 12.875,-32.125 2.75,-7.25 10.375,-25.75 13.75,-33.125 2.125,-4.625 3.875,-6.5 7.375,-7.75 2.125,-0.75 3.125,-1.5 3.125,-2.625 0,-1.375 -1.625,-2 -2.875,-2 -2.375,0 -7.25,0.5 -9.625,0.5 -2,0 -3.75,-0.25 -6.375,-0.25 -1.75,0 -3.25,0.875 -3.25,2 0,1 1.5,2 3.25,2.625 3.375,1.125 4.125,2.25 3.375,4.625 -2.125,6.25 -6.25,16.75 -10.125,26.375 -0.125,0.375 -1,0.625 -1.375,0 -3.375,-6.875 -9.75,-24.125 -10.75,-27.25 -0.75,-2.25 -1.125,-3.125 1.625,-4 2.25,-0.625 2.875,-1.5 2.875,-2.25 0,-1.125 -1,-2 -3.125,-2 -1.125,0 -2.75,0.125 -5.75,0.125 -2.125,0 -12.25,-0.5 -13.375,-0.5 -1.75,0 -2.875,1 -2.875,1.875 z"
         style="font-style:normal;font-variant:normal;font-weight:normal;font-stretch:normal;font-size:125px;line-height:75.99999905%;font-family:'Garamond Premier Pro';-inkscape-font-specification:'Garamond Premier Pro';text-align:start;writing-mode:lr-tb;text-anchor:start;fill:#f9f9f9"
         id="path4638"
         inkscape:connector-curvature="0" />
      <path
         d="m 169.99461,556.48709 c 0.25,0 1,1 1,1.625 0,20.375 -0.25,30 -0.375,32 -0.125,2.25 -1.5,3.75 -4.75,5.125 -1.875,0.75 -3.125,1.375 -3.125,2.5 0,1.375 1.375,2.25 4,2.25 3.5,0 7.875,-0.375 9.25,-0.375 7,0 11.625,0.375 13.25,0.375 2.5,0 4.125,-1 4.125,-2.5 0,-0.875 -1.625,-2.125 -3.75,-2.5 -6.5,-1 -7.875,-1.875 -8,-7.75 -0.25,-9.875 -0.625,-16.875 -0.625,-27.5 0,-3.125 0.5,-3.75 1.125,-3.75 1.25,0 14,0.125 14.375,0.125 0.75,0 2.125,-2.125 2.125,-2.375 0,-1.125 -0.25,-5.25 -1.75,-5.25 -0.875,0 -10.375,0.375 -14.375,0.375 -0.625,0 -1,-0.75 -1,-3.25 0,-5.5 0.625,-12.625 2.25,-17.25 1.375,-4.125 4.375,-7.375 9.125,-7.375 3,0 7.25,3.25 9,4.625 1,0.75 2.625,1.25 3.25,1.25 1.25,0 4,-1.5 5,-3.5 0.375,-0.625 0.625,-1.375 0.625,-2 0,-1 -0.375,-2.75 -0.875,-3.375 -1.875,-2.625 -6.375,-3.875 -11.125,-3.875 -4,0 -9.875,2.25 -13.875,5.125 -3.375,2.5 -7.125,6.125 -9.625,10.75 -3,5.625 -4.375,12.75 -4.375,17.375 0,0.25 -0.625,1.5 -1.125,1.625 -5.125,2.25 -6.75,3.125 -6.75,4.875 0,1.125 1,1.5 2.125,1.75 l 4.875,0.875 z"
         style="font-style:normal;font-variant:normal;font-weight:normal;font-stretch:normal;font-size:125px;line-height:75.99999905%;font-family:'Garamond Premier Pro';-inkscape-font-specification:'Garamond Premier Pro';text-align:start;writing-mode:lr-tb;text-anchor:start;fill:#f9f9f9"
         id="path4640"
         inkscape:connector-curvature="0" />
      <path
         d="m 230.28954,547.36209 c -6.5,0 -13.375,2.875 -17.5,6.375 -5.5,4.375 -10,12 -10,20.75 0,5.625 2,13.25 7.375,18.5 5.25,5.125 12.375,8.125 19.75,8.125 8.25,0 14.375,-3.375 18.875,-7.5 4.25,-3.875 8.125,-10.625 8.125,-20.125 -0.125,-11.5 -9.375,-26.125 -26.625,-26.125 z m -1.875,5.25 c 10.625,0 16.25,11.125 16.25,21.75 0,7.25 -0.75,13.375 -3.375,16.75 -2.5,3.125 -6.5,4.875 -9.5,4.875 -4.625,0 -8.25,-2.375 -9.5,-3.375 -5.125,-4.375 -7.5,-13 -7.5,-20 0,-9.5 3.875,-15.125 5.125,-16.5 1.75,-1.875 5.75,-3.5 8.5,-3.5 z"
         style="font-style:normal;font-variant:normal;font-weight:normal;font-stretch:normal;font-size:125px;line-height:75.99999905%;font-family:'Garamond Premier Pro';-inkscape-font-specification:'Garamond Premier Pro';text-align:start;writing-mode:lr-tb;text-anchor:start;fill:#f9f9f9"
         id="path4642"
         inkscape:connector-curvature="0" />
      <path
         d="m 267.87352,554.61209 c 0,0.75 1.375,1.875 2.75,2.875 3,2.125 3.125,3 3.125,3.75 0,6.625 -0.125,22 -0.375,27.625 -0.125,2.875 -0.5,4.75 -5.375,6.5 -1.5,0.5 -2.875,1.25 -2.875,2.625 0,0.625 1.125,2 3.375,2 3.5,0 5.75,-0.375 10.125,-0.375 3.625,0 10,0.5 13.875,0.5 1.5,0 3.125,-1.125 3.125,-2.125 0,-1.125 -1.625,-2.125 -4.5,-2.875 -5.625,-1.5 -6.625,-2.75 -7,-8.625 -0.375,-4.375 -0.25,-22.375 -0.25,-23.625 0,-0.75 0.625,-2.25 1.125,-2.875 1.625,-2.125 3.5,-2.875 5.75,-2.875 1.625,0 3.5,0.75 4.5,1.5 1.25,0.875 2,1.25 2.875,1.25 0.5,0 1.375,-0.375 2,-1 1.75,-1.375 5,-4.875 5,-7.625 0,-1.375 -3.25,-3.875 -6.875,-3.875 -4.875,0 -9.875,3.375 -13.5,7.375 -0.375,0.5 -1.25,0 -1.25,-0.375 l -0.25,-6.125 c 0,-0.375 -1,-1.75 -1.5,-1.75 -1,0 -2,0.5 -3.625,1.25 -2.625,1.375 -6.5,3.125 -8.5,4.25 -1,0.5 -1.75,1.5 -1.75,2.625 z"
         style="font-style:normal;font-variant:normal;font-weight:normal;font-stretch:normal;font-size:125px;line-height:75.99999905%;font-family:'Garamond Premier Pro';-inkscape-font-specification:'Garamond Premier Pro';text-align:start;writing-mode:lr-tb;text-anchor:start;fill:#f9f9f9"
         id="path4644"
         inkscape:connector-curvature="0" />
      <path
         d="m 397.78758,542.48709 c 0,-5.5 -1.875,-10.875 -7.75,-15.375 -3,-2.25 -7.625,-4.75 -18.625,-4.75 -6,0 -11.125,0.625 -15.875,0.625 l -11,0 c -2.625,0 -5,0.5 -5,2.375 0,1.125 1.5,2.125 3.625,2.5 4.75,0.875 6.625,2.25 6.875,4.75 0.25,2.625 0.5,7.75 0.5,23.125 0,22.5 0,26.625 -0.125,31.125 -0.25,6.25 -1.875,6.875 -6.75,8.5 -2.25,0.75 -3.5,1.5 -3.5,2.625 0,1.25 1.5,2.125 4.5,2.125 4.625,0 6.75,-0.5 10.625,-0.5 4.375,0 10.875,0.5 14,0.5 1.875,0 4,-0.75 4,-2.25 0,-1.375 -1,-2.125 -3.375,-2.75 -5.75,-1.5 -7.375,-3.125 -7.75,-7.625 -0.375,-4.375 -0.5,-10.75 -0.5,-20.75 0,-0.75 0.75,-1.875 1.75,-1.875 4.25,0 7.375,0.125 10.25,4.125 2.375,3.375 9.625,14.125 14.125,20 9.25,12 16.625,12.75 22.125,12.75 1.5,0 7.25,-0.625 7.25,-3 0,-0.75 -0.5,-1.625 -1.75,-1.875 -5.125,-1.25 -8.625,-3 -14.75,-9.875 -5.875,-6.625 -15,-20.625 -16.75,-24.125 -0.25,-0.625 -0.125,-1.75 0.375,-1.875 1.125,-0.5 6.625,-4.125 7.625,-5.125 3.625,-3.375 5.875,-8.75 5.875,-13.375 z m -11.875,1.625 c 0,5 -2.125,9.25 -4.125,11.25 -2.75,2.5 -9.75,4.75 -11.625,4.75 -2.375,0 -4.75,-0.375 -7.5,-1.125 -0.625,-0.25 -1,-0.75 -1,-1.5 -0.25,-6.25 -0.5,-19.75 -0.25,-26.625 0,-1.125 0.625,-2.25 1.375,-2.5 1.25,-0.5 4,-1 5.625,-1 12.75,0 17.5,7.75 17.5,16.75 z"
         style="font-style:normal;font-variant:normal;font-weight:normal;font-stretch:normal;font-size:125px;line-height:75.99999905%;font-family:'Garamond Premier Pro';-inkscape-font-specification:'Garamond Premier Pro';text-align:start;writing-mode:lr-tb;text-anchor:start;fill:#f9f9f9"
         id="path4646"
         inkscape:connector-curvature="0" />
      <path
         d="m 446.59227,547.36209 c -5.25,0 -10.5,1.5 -14.625,4.25 -7.5,4.875 -12.125,13.5 -12.125,23.625 0,15.25 8.875,25.875 24.5,25.875 6.625,0 13.25,-2.875 17.875,-7.75 1,-1.125 1.625,-2.5 1.625,-3.875 0,-1.375 -1,-2 -1.5,-1.625 -2.375,1.625 -7.75,4.75 -12.625,4.75 -10.75,0 -19.125,-8.5 -19.125,-19.625 0,-0.75 0.125,-3 0.625,-3.875 0.25,-0.625 1.625,-1.375 2,-1.375 2.25,0 26,-0.375 26.875,-0.375 1.25,0 3.375,-2.375 3.375,-3.75 0,-3.125 -0.5,-6.375 -2.125,-8.75 -3,-4.875 -8.75,-7.5 -14.75,-7.5 z m -3.75,4.5 c 6.625,0 9.625,3.375 9.625,7.125 0,4.25 -5.75,4.5 -10.5,4.5 -3.625,0 -7.75,-0.125 -9.125,-0.25 -0.25,0 -0.875,-0.75 -0.75,-1.25 1.625,-6.25 7.625,-10.125 10.75,-10.125 z"
         style="font-style:normal;font-variant:normal;font-weight:normal;font-stretch:normal;font-size:125px;line-height:75.99999905%;font-family:'Garamond Premier Pro';-inkscape-font-specification:'Garamond Premier Pro';text-align:start;writing-mode:lr-tb;text-anchor:start;fill:#f9f9f9"
         id="path4648"
         inkscape:connector-curvature="0" />
      <path
         d="m 527.05907,572.98709 c 0,-5.25 -1.5,-13.625 -8.25,-19.5 -5.75,-5 -10.875,-6.125 -15.625,-6.125 -3.125,0 -9.25,1.375 -14.5,4.25 -0.5,0.25 -1.25,-0.375 -1.25,-0.875 0,-13.875 0.5,-23.875 1,-32.875 0.125,-1.5 -0.625,-3 -1.25,-3 -0.625,0 -2.125,0.375 -2.75,0.75 -3.375,1.625 -9.125,3.25 -11.625,4.25 -0.625,0.125 -1.75,2 -1.75,2.375 0,0.5 0.25,1 1.875,2 3,1.75 3.625,2.5 3.875,3.625 0.375,1.25 0.625,4.125 0.625,18.25 0,14.625 -0.625,48.75 -0.625,49.75 0,1.5 1.25,2.25 1.875,2.25 0.875,0 2.875,0 3.5,0.25 3.25,1.375 10.375,2.75 14.75,2.75 6.875,0 13.5,-2.25 18.75,-6.25 6.625,-5.25 11.375,-13.125 11.375,-21.875 z m -11.625,1.5 c 0,12.75 -5,17.375 -6,18.25 -1,0.875 -4.875,2.25 -8.375,2.25 -9,0 -11.75,-5.5 -12.375,-7.25 -0.75,-2.125 -1.25,-4.5 -1.25,-15.5 0,-9 0.125,-11.875 0.375,-13.125 0,-0.375 1.5,-2.25 1.75,-2.5 2.125,-1.75 4.125,-2.5 8.375,-2.5 9.125,0 17.5,8 17.5,20.375 z"
         style="font-style:normal;font-variant:normal;font-weight:normal;font-stretch:normal;font-size:125px;line-height:75.99999905%;font-family:'Garamond Premier Pro';-inkscape-font-specification:'Garamond Premier Pro';text-align:start;writing-mode:lr-tb;text-anchor:start;fill:#f9f9f9"
         id="path4650"
         inkscape:connector-curvature="0" />
      <path
         d="m 565.73289,547.36209 c -5.25,0 -10.5,1.5 -14.625,4.25 -7.5,4.875 -12.125,13.5 -12.125,23.625 0,15.25 8.875,25.875 24.5,25.875 6.625,0 13.25,-2.875 17.875,-7.75 1,-1.125 1.625,-2.5 1.625,-3.875 0,-1.375 -1,-2 -1.5,-1.625 -2.375,1.625 -7.75,4.75 -12.625,4.75 -10.75,0 -19.125,-8.5 -19.125,-19.625 0,-0.75 0.125,-3 0.625,-3.875 0.25,-0.625 1.625,-1.375 2,-1.375 2.25,0 26,-0.375 26.875,-0.375 1.25,0 3.375,-2.375 3.375,-3.75 0,-3.125 -0.5,-6.375 -2.125,-8.75 -3,-4.875 -8.75,-7.5 -14.75,-7.5 z m -3.75,4.5 c 6.625,0 9.625,3.375 9.625,7.125 0,4.25 -5.75,4.5 -10.5,4.5 -3.625,0 -7.75,-0.125 -9.125,-0.25 -0.25,0 -0.875,-0.75 -0.75,-1.25 1.625,-6.25 7.625,-10.125 10.75,-10.125 z"
         style="font-style:normal;font-variant:normal;font-weight:normal;font-stretch:normal;font-size:125px;line-height:75.99999905%;font-family:'Garamond Premier Pro';-inkscape-font-specification:'Garamond Premier Pro';text-align:start;writing-mode:lr-tb;text-anchor:start;fill:#f9f9f9"
         id="path4652"
         inkscape:connector-curvature="0" />
      <path
         d="m 592.03368,521.61209 c 0,1 0.5,1.75 3,2.75 2.125,0.875 3.75,1.875 4,3.375 0.375,2 0.375,13.5 0.375,30.375 0,21.5 -0.25,29.25 -0.5,31.25 -0.375,2.5 -0.5,4.125 -6.25,6.25 -2.25,0.75 -3.125,1.75 -3.125,3 0,1.125 1.625,1.5 3.625,1.5 2.875,0 5.5,-0.5 10.375,-0.5 3.25,0 8.375,0.375 11.875,0.375 2.75,0 3.625,-0.75 3.625,-1.75 0,-0.75 -0.625,-1.875 -2.625,-2.625 -6,-2.25 -6.375,-2.375 -6.75,-7.5 -0.25,-3 -0.25,-23 -0.25,-30.5 0,-11.625 0.375,-27.5 0.375,-37.375 0,-3.5 -0.5,-5.375 -1.5,-5.375 -0.375,0 -1.375,0.125 -2.625,0.5 -2.625,0.75 -7.25,2.375 -11.25,4 -0.875,0.375 -2.375,1.25 -2.375,2.25 z"
         style="font-style:normal;font-variant:normal;font-weight:normal;font-stretch:normal;font-size:125px;line-height:75.99999905%;font-family:'Garamond Premier Pro';-inkscape-font-specification:'Garamond Premier Pro';text-align:start;writing-mode:lr-tb;text-anchor:start;fill:#f9f9f9"
         id="path4654"
         inkscape:connector-curvature="0" />
      <path
         d="m 644.04539,547.36209 c -2.75,0 -8,1.375 -10.875,3.25 -3,2.25 -6.375,5.75 -6.375,11.75 0,7.375 4.875,11.25 9,13.625 3.75,2.125 6.5,3.5 9.875,5.5 3.125,2 4.5,4.625 4.5,7 0,4 -3.125,7.75 -8.75,7.75 -3.375,0 -7.75,-2.375 -11.375,-8 -1.625,-2.5 -2.5,-3.375 -3.25,-3.375 -1.375,0 -2.25,0.875 -2.25,4.125 0,2.25 1.25,7.75 2.5,9 1.375,1.375 5.125,3.125 12.75,3.125 3.125,0 7.125,-0.625 10.75,-2.375 4.75,-2.125 9.375,-6.625 9.375,-13.75 0,-7.375 -5.5,-11.25 -12,-14.625 -6.5,-3.375 -11.875,-5 -11.875,-11.125 0,-4.625 4.375,-7.375 7.25,-7.375 2.625,0 6.75,2.125 9.5,7.25 1.125,2.25 2.25,3.375 2.75,3.375 1.75,0 2.75,-2.75 2.75,-3.625 0,-1.375 0,-6.125 -0.25,-6.875 -0.125,-0.5 -1.5,-2.25 -2.125,-2.5 l -4,-1.125 c -1.75,-0.625 -4.625,-1 -7.875,-1 z"
         style="font-style:normal;font-variant:normal;font-weight:normal;font-stretch:normal;font-size:125px;line-height:75.99999905%;font-family:'Garamond Premier Pro';-inkscape-font-specification:'Garamond Premier Pro';text-align:start;writing-mode:lr-tb;text-anchor:start;fill:#f9f9f9"
         id="path4656"
         inkscape:connector-curvature="0" />
    </g>
  </g>
</svg>
