<?xml version="1.0" encoding="UTF-8" standalone="no"?>
<svg
   xmlns:dc="http://purl.org/dc/elements/1.1/"
   xmlns:cc="http://creativecommons.org/ns#"
   xmlns:rdf="http://www.w3.org/1999/02/22-rdf-syntax-ns#"
   xmlns:svg="http://www.w3.org/2000/svg"
   xmlns="http://www.w3.org/2000/svg"
   xmlns:xlink="http://www.w3.org/1999/xlink"
   id="svg4300"
   viewBox="0 0 734.88767 428.02253"
   height="428.02252pt"
   version="1.1"
   width="734.8877pt">
  <metadata
     id="metadata4424">
    <rdf:RDF>
      <cc:Work
         rdf:about="">
        <dc:format>image/svg+xml</dc:format>
        <dc:type
           rdf:resource="http://purl.org/dc/dcmitype/StillImage" />
        <dc:title></dc:title>
      </cc:Work>
    </rdf:RDF>
  </metadata>
  <defs
     id="defs4302">
    <path
       d="m 0.31,10 3.26,0 0,-1.15 -0.69,0 0,-1.85 1.85,0 0,1.85 -0.69,0 0,1.15 3.26,0 0,-1.15 -0.8,0 0,-4.49 0.8,0 0,-1.15 -3.26,0 0,1.15 0.69,0 0,1.49 -1.85,0 0,-1.49 0.69,0 0,-1.15 -3.26,0 0,1.15 0.8,0 0,4.49 -0.8,0 0,1.15 z"
       id="GlRockwellStd-Bold72" />
    <path
       d="m 0.34,10 5.97,0 0,-2.16 -1.29,0 0,1.01 -2.11,0 0,-1.78 1.7,0 0,-1.15 -1.7,0 0,-1.56 2.11,0 0,1 1.29,0 0,-2.15 -5.97,0 0,1.15 0.8,0 0,4.49 -0.8,0 0,1.15 z"
       id="GlRockwellStd-Bold69" />
    <path
       d="m 0.22,10 3.83,0 0,-1.15 -1.03,0 0,-4.49 1.03,0 0,-1.15 -3.83,0 0,1.15 1.03,0 0,4.49 -1.03,0 0,1.15 z"
       id="GlRockwellStd-Bold73" />
    <path
       d="m 0.28,10 6.07,0 0,-3.25 -1.33,0 0,2.1 -2,0 0,-4.49 0.99,0 0,-1.15 -3.73,0 0,1.15 0.97,0 0,4.49 -0.97,0 0,1.15 z"
       id="GlRockwellStd-Bold76" />
    <path
       d="m 0.33,10 4.04,0 C 6.53,10 7.62,8.38 7.62,6.62 7.62,5.69 7.33,4.81 6.65,4.13 5.96,3.44 5.11,3.21 3.88,3.21 l -3.55,0 0,1.15 1.03,0 0,4.49 -1.03,0 0,1.15 0,0 z m 2.8,-1.15 0,-4.49 0.61,0 c 1.32,0 2.04,0.81 2.04,2.27 0,1.35 -0.63,2.22 -1.98,2.22 l -0.67,0 z"
       id="GlRockwellStd-Bold68" />
    <path
       d="m 6.99,8.85 -0.8,0 -1.42,-4.49 0.91,0 0,-1.15 -4.43,0 0,1.15 0.91,0 -1.33,4.49 -0.85,0 0,1.15 3.02,0 0,-1.15 -0.91,0 0.37,-1.16 1.76,0 0.32,1.16 -0.85,0 0,1.15 3.3,0 0,-1.15 0,0 z m -3.05,-2.16 -1.18,0 0.61,-2.05 0.02,0 0.55,2.05 z"
       id="GlRockwellStd-Bold65" />
    <path
       d="m 0.41,10 0.83,0 0,-0.26 c 0.34,0.23 0.73,0.34 1.24,0.34 1.08,0 1.81,-0.58 1.81,-1.44 C 4.29,8.31 4.17,7.94 3.89,7.66 3.11,6.88 1.29,7.34 1.29,6.55 1.29,6.2 1.62,5.97 2.12,5.97 c 0.48,0 0.83,0.18 1.1,0.58 l 0,0.29 0.82,0 0,-1.56 -0.82,0 0,0.19 C 2.91,5.3 2.5,5.2 2.07,5.2 1.11,5.2 0.41,5.78 0.41,6.59 c 0,0.35 0.15,0.68 0.37,0.9 0.9,0.9 2.56,0.34 2.56,1.22 C 3.34,9.07 2.96,9.3 2.37,9.3 1.75,9.3 1.32,9.01 1.24,8.54 l 0,-0.16 -0.83,0 0,1.62 z"
       id="GlRockwellStd115" />
    <path
       d="m 0.99,9.18 -0.75,0 0,0.82 2.44,0 0,-0.82 -0.75,0 0,-3.9 -1.69,0 0,0.82 0.75,0 0,3.08 0,0 z M 1.44,3.11 c -0.31,0 -0.56,0.25 -0.56,0.56 0,0.31 0.25,0.56 0.56,0.56 C 1.75,4.23 2,3.98 2,3.67 2,3.36 1.75,3.11 1.44,3.11 Z"
       id="GlRockwellStd105" />
    <path
       d="m 2.04,5.28 -1.77,0 0,0.82 0.83,0 0,3.08 -0.81,0 0,0.82 2.56,0 0,-0.82 -0.81,0 0,-2.53 c 0.48,-0.38 0.98,-0.6 1.36,-0.6 0.38,0 0.55,0.26 0.55,0.86 l 0,3.09 1.75,0 0,-0.82 -0.81,0 0,-2.64 C 4.89,5.61 4.32,5.2 3.65,5.2 3.15,5.2 2.67,5.39 2.04,5.85 l 0,-0.57 z"
       id="GlRockwellStd110" />
    <path
       d="M 4.84,5.28 4,5.28 4,5.6 C 3.65,5.3 3.18,5.14 2.67,5.14 c -1.29,0 -2.32,1.1 -2.32,2.46 0,1.2 0.77,2.54 2.41,2.54 1.03,0 1.81,-0.49 2.22,-1.42 L 4.21,8.36 C 3.93,8.96 3.42,9.29 2.79,9.29 1.94,9.29 1.35,8.6 1.35,7.59 c 0,-0.95 0.56,-1.6 1.4,-1.6 0.34,0 0.63,0.1 0.84,0.28 C 3.81,6.46 3.95,6.73 4,7.06 l 0.84,0 0,-1.78 z"
       id="GlRockwellStd99" />
    <path
       d="m 5.36,7.87 c 0,-1.73 -1.21,-2.73 -2.52,-2.73 -1.23,0 -2.48,0.97 -2.48,2.5 0,1.46 1.1,2.5 2.63,2.5 C 4,10.14 4.85,9.7 5.36,8.91 L 4.54,8.55 C 4.19,9.05 3.62,9.32 3.01,9.32 2.13,9.32 1.53,8.79 1.39,7.87 l 3.97,0 0,0 z M 1.42,7.19 c 0.14,-0.79 0.7,-1.3 1.44,-1.3 0.74,0 1.4,0.55 1.55,1.3 l -2.99,0 z"
       id="GlRockwellStd101" />
    <path
       d="m 2.37,9.18 -0.93,0 0,0.82 2.74,0 0,-0.82 -0.87,0 0,-5.97 -1.87,0 0,0.82 0.93,0 0,5.15 z"
       id="GlRockwellStd49" />
    <path
       d="m 0.51,7.99 c 0.04,1.3 0.79,2.12 1.94,2.12 1.5,0 2.39,-1.32 2.39,-3.55 0,-2.18 -0.86,-3.46 -2.33,-3.46 -1.2,0 -2.05,0.96 -2.05,2.32 0,1.22 0.8,2.11 1.89,2.11 0.57,0 1.16,-0.28 1.59,-0.76 0,1.86 -0.67,2.55 -1.38,2.55 C 1.92,9.32 1.45,8.8 1.34,7.99 l -0.83,0 0,0 z M 3.9,5.75 C 3.4,6.36 2.96,6.63 2.46,6.63 1.78,6.63 1.33,6.12 1.33,5.35 c 0,-0.84 0.5,-1.43 1.22,-1.43 0.77,0 1.2,0.58 1.35,1.83 z"
       id="GlRockwellStd57" />
    <path
       d="M 4.82,5.21 C 4.78,3.91 4.03,3.1 2.88,3.1 c -1.5,0 -2.39,1.31 -2.39,3.54 0,2.18 0.87,3.47 2.34,3.47 1.2,0 2.04,-0.96 2.04,-2.32 0,-1.23 -0.79,-2.12 -1.89,-2.12 -0.57,0 -1.16,0.28 -1.59,0.76 0,-1.32 0.39,-2.54 1.38,-2.54 0.64,0 1.11,0.51 1.22,1.32 l 0.83,0 0,0 z M 1.43,7.45 C 1.93,6.84 2.37,6.57 2.87,6.57 3.56,6.57 4,7.08 4,7.86 4,8.7 3.5,9.29 2.78,9.29 2.01,9.29 1.58,8.71 1.43,7.45 Z"
       id="GlRockwellStd54" />
  </defs>
  <use
     height="100%"
     width="100%"
     y="0"
     x="0"
     id="use4336"
     transform="matrix(24.965738,-1.308399,1.308399,24.965738,32.385126,-50.635629)"
     xlink:href="#GlRockwellStd-Bold72"
     style="fill:#00ffff;stroke:none" />
  <use
     height="100%"
     width="100%"
     y="0"
     x="0"
     id="use4338"
     transform="matrix(24.965738,-1.308399,1.308399,24.965738,222.12474,-60.579459)"
     xlink:href="#GlRockwellStd-Bold69"
     style="fill:#00ffff;stroke:none" />
  <use
     height="100%"
     width="100%"
     y="0"
     x="0"
     id="use4340"
     transform="matrix(24.965738,-1.308399,1.308399,24.965738,388.64622,-69.306479)"
     xlink:href="#GlRockwellStd-Bold73"
     style="fill:#00ffff;stroke:none" />
  <use
     height="100%"
     width="100%"
     y="0"
     x="0"
     id="use4342"
     transform="matrix(24.965738,-1.308399,1.308399,24.965738,495.24992,-74.893339)"
     xlink:href="#GlRockwellStd-Bold76"
     style="fill:#00ffff;stroke:none" />
  <use
     height="100%"
     width="100%"
     y="0"
     x="0"
     id="use4344"
     transform="matrix(24.965738,-1.308399,1.308399,24.965738,-12.438654,144.97835)"
     xlink:href="#GlRockwellStd-Bold68"
     style="fill:#00ffff;stroke:none" />
  <use
     height="100%"
     width="100%"
     y="0"
     x="0"
     id="use4346"
     transform="matrix(24.965738,-1.308399,1.308399,24.965738,180.29685,134.87751)"
     xlink:href="#GlRockwellStd-Bold65"
     style="fill:#00ffff;stroke:none" />
  <use
     height="100%"
     width="100%"
     y="0"
     x="0"
     id="use4348"
     transform="matrix(24.965738,-1.308399,1.308399,24.965738,354.5577,125.74489)"
     xlink:href="#GlRockwellStd-Bold68"
     style="fill:#00ffff;stroke:none" />
  <use
     height="100%"
     width="100%"
     y="0"
     x="0"
     id="use4350"
     transform="matrix(24.965738,-1.308399,1.308399,24.965738,547.2932,115.64405)"
     xlink:href="#GlRockwellStd-Bold65"
     style="fill:#00ffff;stroke:none" />
  <g
     transform="matrix(0.99995262,-0.0097348,0.0097348,0.99995262,116.20371,394.64559)"
     id="g4354">
    <use
       style="fill:#00ffff;stroke:none"
       xlink:href="#GlRockwellStd115"
       transform="matrix(5,0,0,5,145,-15.49)"
       id="use4356"
       x="0"
       y="0"
       width="100%"
       height="100%" />
    <use
       style="fill:#00ffff;stroke:none"
       xlink:href="#GlRockwellStd105"
       transform="matrix(5,0,0,5,167.9,-15.49)"
       id="use4358"
       x="0"
       y="0"
       width="100%"
       height="100%" />
    <use
       style="fill:#00ffff;stroke:none"
       xlink:href="#GlRockwellStd110"
       transform="matrix(5,0,0,5,182.5,-15.49)"
       id="use4360"
       x="0"
       y="0"
       width="100%"
       height="100%" />
    <use
       style="fill:#00ffff;stroke:none"
       xlink:href="#GlRockwellStd99"
       transform="matrix(5,0,0,5,211.15,-15.49)"
       id="use4362"
       x="0"
       y="0"
       width="100%"
       height="100%" />
    <use
       style="fill:#00ffff;stroke:none"
       xlink:href="#GlRockwellStd101"
       transform="matrix(5,0,0,5,237.2,-15.49)"
       id="use4364"
       x="0"
       y="0"
       width="100%"
       height="100%" />
    <use
       style="fill:#00ffff;stroke:none"
       xlink:href="#GlRockwellStd49"
       transform="matrix(5,0,0,5,278.35,-15.49)"
       id="use4366"
       x="0"
       y="0"
       width="100%"
       height="100%" />
    <use
       style="fill:#00ffff;stroke:none"
       xlink:href="#GlRockwellStd57"
       transform="matrix(5,0,0,5,305.45,-15.49)"
       id="use4368"
       x="0"
       y="0"
       width="100%"
       height="100%" />
    <use
       style="fill:#00ffff;stroke:none"
       xlink:href="#GlRockwellStd49"
       transform="matrix(5,0,0,5,332.55,-15.49)"
       id="use4370"
       x="0"
       y="0"
       width="100%"
       height="100%" />
    <use
       style="fill:#00ffff;stroke:none"
       xlink:href="#GlRockwellStd54"
       transform="matrix(5,0,0,5,359.65,-15.49)"
       id="use4372"
       x="0"
       y="0"
       width="100%"
       height="100%" />
  </g>
</svg>
