<?xml version="1.0" encoding="UTF-8" standalone="no"?>
<svg
   xmlns:dc="http://purl.org/dc/elements/1.1/"
   xmlns:cc="http://creativecommons.org/ns#"
   xmlns:rdf="http://www.w3.org/1999/02/22-rdf-syntax-ns#"
   xmlns:svg="http://www.w3.org/2000/svg"
   xmlns="http://www.w3.org/2000/svg"
   xmlns:sodipodi="http://sodipodi.sourceforge.net/DTD/sodipodi-0.dtd"
   xmlns:inkscape="http://www.inkscape.org/namespaces/inkscape"
   width="168.02046"
   height="163.37865"
   viewBox="0 0 168.02046 163.37865"
   version="1.1"
   id="svg2"
   inkscape:version="0.91 r13725"
   sodipodi:docname="krasse-tasse.svg"
   inkscape:export-filename="/Users/dominic/projects/tsnuk/designs/krasse-tasse/krasse-tasse-spreadshirt.png"
   inkscape:export-xdpi="600"
   inkscape:export-ydpi="600">
  <metadata
     id="metadata23">
    <rdf:RDF>
      <cc:Work
         rdf:about="">
        <dc:format>image/svg+xml</dc:format>
        <dc:type
           rdf:resource="http://purl.org/dc/dcmitype/StillImage" />
        <dc:title>Group</dc:title>
      </cc:Work>
    </rdf:RDF>
  </metadata>
  <sodipodi:namedview
     pagecolor="#ffffff"
     bordercolor="#666666"
     borderopacity="1"
     objecttolerance="10"
     gridtolerance="10"
     guidetolerance="10"
     inkscape:pageopacity="0"
     inkscape:pageshadow="2"
     inkscape:window-width="1368"
     inkscape:window-height="856"
     id="namedview21"
     showgrid="false"
     inkscape:zoom="2.5220994"
     inkscape:cx="9.3997554"
     inkscape:cy="50.515672"
     inkscape:window-x="0"
     inkscape:window-y="0"
     inkscape:window-maximized="0"
     inkscape:current-layer="svg2"
     fit-margin-top="0"
     fit-margin-left="0"
     fit-margin-right="0"
     fit-margin-bottom="0" />
  <!-- Generator: Sketch 3.6.1 (26313) - http://www.bohemiancoding.com/sketch -->
  <title
     id="title4">Group</title>
  <desc
     id="desc6">Created with Sketch.</desc>
  <defs
     id="defs8" />
  <path
     sodipodi:type="star"
     style="color:#000000;clip-rule:nonzero;display:inline;overflow:visible;visibility:visible;opacity:1;isolation:auto;mix-blend-mode:normal;color-interpolation:sRGB;color-interpolation-filters:linearRGB;solid-color:#000000;solid-opacity:1;fill:none;fill-opacity:1;fill-rule:nonzero;stroke:#ff4141;stroke-width:0.27599999;stroke-linecap:butt;stroke-linejoin:miter;stroke-miterlimit:4;stroke-dasharray:none;stroke-dashoffset:0;stroke-opacity:1;color-rendering:auto;image-rendering:auto;shape-rendering:auto;text-rendering:auto;enable-background:accumulate"
     id="path5122"
     sodipodi:sides="3"
     sodipodi:cx="113.73479"
     sodipodi:cy="92.068527"
     sodipodi:r1="103.02782"
     sodipodi:r2="61.133915"
     sodipodi:arg1="-0.26179939"
     sodipodi:arg2="0.78539816"
     inkscape:flatsided="true"
     inkscape:rounded="0"
     inkscape:randomized="0"
     d="M 213.25202,65.402966 87.069226,191.58576 40.883119,19.216859 Z"
     inkscape:transform-center-y="13.841759"
     transform="matrix(-0.50333537,-0.8124422,0.82467107,-0.49587152,53.594445,205.86758)"
     inkscape:transform-center-x="-11.704925" />
  <g
     transform="matrix(4.3453728,-0.09092308,0.09092308,4.3453728,-256.3945,-98.538981)"
     style="color:#000000;font-style:normal;font-variant:normal;font-weight:bold;font-stretch:normal;font-size:40px;line-height:94.99999881%;font-family:'Bebas Neue';-inkscape-font-specification:'Bebas Neue Bold';text-indent:0;text-align:center;text-decoration:none;text-decoration-line:none;text-decoration-style:solid;text-decoration-color:#000000;letter-spacing:0.00230079px;word-spacing:0px;text-transform:none;direction:ltr;block-progression:tb;writing-mode:lr-tb;baseline-shift:baseline;text-anchor:middle;white-space:normal;clip-rule:nonzero;display:inline;overflow:visible;visibility:visible;opacity:1;isolation:auto;mix-blend-mode:normal;color-interpolation:sRGB;color-interpolation-filters:linearRGB;solid-color:#000000;solid-opacity:1;fill:#2d2d2d;fill-opacity:1;fill-rule:nonzero;stroke:none;stroke-width:5.16900015;stroke-linecap:butt;stroke-linejoin:miter;stroke-miterlimit:4;stroke-dasharray:none;stroke-dashoffset:0;stroke-opacity:1;color-rendering:auto;image-rendering:auto;shape-rendering:auto;text-rendering:auto;enable-background:accumulate"
     id="flowRoot5061">
    <path
       d="m 64.03695,39.349467 1.60174,0 -2.168728,-5.49978 2.168728,-4.422503 -1.559216,0 -2.041155,4.32328 0,-4.32328 -1.559216,0 0,9.922283 1.559216,0 0,-3.047559 0.481939,-0.90718 1.516692,3.954739 z"
       style="font-style:normal;font-variant:normal;font-weight:bold;font-stretch:normal;font-size:14.17469025px;line-height:94.99999881%;font-family:'Bebas Neue';-inkscape-font-specification:'Bebas Neue Bold';text-align:center;letter-spacing:0.00230079px;text-anchor:middle"
       id="path4206" />
    <path
       d="m 71.198355,39.349467 c -0.155921,-0.368542 -0.170096,-0.72291 -0.170096,-1.204849 l 0,-1.530867 c 0,-1.034752 -0.255144,-1.786011 -1.034752,-2.112028 0.694559,-0.326018 1.020577,-0.992229 1.020577,-2.012806 l 0,-0.779608 c 0,-1.530867 -0.69456,-2.282125 -2.310474,-2.282125 l -2.352999,0 0,9.922283 1.559216,0 0,-4.039787 0.538638,0 c 0.708735,0 1.020578,0.340193 1.020578,1.261547 l 0,1.559216 c 0,0.807958 0.0567,0.963879 0.141747,1.219024 l 1.587565,0 z m -2.537269,-8.504814 c 0.552813,0 0.793782,0.311843 0.793782,1.020577 l 0,0.978054 c 0,0.793783 -0.354367,1.048927 -0.935529,1.048927 l -0.609512,0 0,-3.047558 0.751259,0 z"
       style="font-style:normal;font-variant:normal;font-weight:bold;font-stretch:normal;font-size:14.17469025px;line-height:94.99999881%;font-family:'Bebas Neue';-inkscape-font-specification:'Bebas Neue Bold';text-align:center;letter-spacing:0.00230079px;text-anchor:middle"
       id="path4208" />
    <path
       d="m 75.48695,29.427184 -2.282125,0 -1.587565,9.922283 1.431643,0 0.269319,-1.800186 1.913584,0 0.269319,1.800186 1.57339,0 -1.587565,-9.922283 z m -1.219023,1.757661 0.751258,5.01784 -1.502517,0 0.751259,-5.01784 z"
       style="font-style:normal;font-variant:normal;font-weight:bold;font-stretch:normal;font-size:14.17469025px;line-height:94.99999881%;font-family:'Bebas Neue';-inkscape-font-specification:'Bebas Neue Bold';text-align:center;letter-spacing:0.00230079px;text-anchor:middle"
       id="path4210" />
    <path
       d="m 77.590649,31.808531 c 0,2.834939 3.047558,3.217655 3.047558,5.258811 0,0.708734 -0.311843,0.963878 -0.807957,0.963878 -0.496114,0 -0.807958,-0.255144 -0.807958,-0.963878 l 0,-0.708735 -1.474167,0 0,0.609512 c 0,1.587565 0.793782,2.494745 2.324649,2.494745 1.530866,0 2.324649,-0.90718 2.324649,-2.494745 0,-2.834938 -3.047558,-3.217655 -3.047558,-5.25881 0,-0.708735 0.283494,-0.978054 0.779608,-0.978054 0.496114,0 0.779608,0.269319 0.779608,0.978054 l 0,0.411066 1.474167,0 0,-0.311844 c 0,-1.587565 -0.779608,-2.494745 -2.296299,-2.494745 -1.516692,0 -2.2963,0.90718 -2.2963,2.494745 z"
       style="font-style:normal;font-variant:normal;font-weight:bold;font-stretch:normal;font-size:14.17469025px;line-height:94.99999881%;font-family:'Bebas Neue';-inkscape-font-specification:'Bebas Neue Bold';text-align:center;letter-spacing:0.00230079px;text-anchor:middle"
       id="path4212" />
    <path
       d="m 82.908457,31.808531 c 0,2.834939 3.047558,3.217655 3.047558,5.258811 0,0.708734 -0.311843,0.963878 -0.807957,0.963878 -0.496114,0 -0.807957,-0.255144 -0.807957,-0.963878 l 0,-0.708735 -1.474168,0 0,0.609512 c 0,1.587565 0.793783,2.494745 2.324649,2.494745 1.530867,0 2.324649,-0.90718 2.324649,-2.494745 0,-2.834938 -3.047558,-3.217655 -3.047558,-5.25881 0,-0.708735 0.283494,-0.978054 0.779608,-0.978054 0.496114,0 0.779608,0.269319 0.779608,0.978054 l 0,0.411066 1.474168,0 0,-0.311844 c 0,-1.587565 -0.779608,-2.494745 -2.2963,-2.494745 -1.516692,0 -2.2963,0.90718 -2.2963,2.494745 z"
       style="font-style:normal;font-variant:normal;font-weight:bold;font-stretch:normal;font-size:14.17469025px;line-height:94.99999881%;font-family:'Bebas Neue';-inkscape-font-specification:'Bebas Neue Bold';text-align:center;letter-spacing:0.00230079px;text-anchor:middle"
       id="path4214" />
    <path
       d="m 89.983929,30.844653 2.693191,0 0,-1.417469 -4.252407,0 0,9.922283 4.252407,0 0,-1.417469 -2.693191,0 0,-2.905812 2.140378,0 0,-1.417469 -2.140378,0 0,-2.764064 z"
       style="font-style:normal;font-variant:normal;font-weight:bold;font-stretch:normal;font-size:14.17469025px;line-height:94.99999881%;font-family:'Bebas Neue';-inkscape-font-specification:'Bebas Neue Bold';text-align:center;letter-spacing:0.00230079px;text-anchor:middle"
       id="path4216" />
  </g>
  <g
     transform="matrix(5.5844452,-0.03126131,0.03126131,5.5844452,-349.75837,-88.619681)"
     style="color:#000000;font-style:normal;font-variant:normal;font-weight:bold;font-stretch:normal;font-size:40px;line-height:94.99999881%;font-family:'Bebas Neue';-inkscape-font-specification:'Bebas Neue Bold';text-indent:0;text-align:center;text-decoration:none;text-decoration-line:none;text-decoration-style:solid;text-decoration-color:#000000;letter-spacing:0.00230079px;word-spacing:0px;text-transform:none;direction:ltr;block-progression:tb;writing-mode:lr-tb;baseline-shift:baseline;text-anchor:middle;white-space:normal;clip-rule:nonzero;display:inline;overflow:visible;visibility:visible;opacity:1;isolation:auto;mix-blend-mode:normal;color-interpolation:sRGB;color-interpolation-filters:linearRGB;solid-color:#000000;solid-opacity:1;fill:#2d2d2d;fill-opacity:1;fill-rule:nonzero;stroke:none;stroke-width:5.16900015;stroke-linecap:butt;stroke-linejoin:miter;stroke-miterlimit:4;stroke-dasharray:none;stroke-dashoffset:0;stroke-opacity:1;color-rendering:auto;image-rendering:auto;shape-rendering:auto;text-rendering:auto;enable-background:accumulate"
     id="flowRoot5089">
    <path
       d="m 63.542651,30.844653 1.630089,0 0,8.504814 1.559216,0 0,-8.504814 1.630089,0 0,-1.417469 -4.819394,0 0,1.417469 z"
       style="font-style:normal;font-variant:normal;font-weight:bold;font-stretch:normal;font-size:14.17469025px;line-height:94.99999881%;font-family:'Bebas Neue';-inkscape-font-specification:'Bebas Neue Bold';text-align:center;letter-spacing:0.00230079px;text-anchor:middle"
       id="path4195" />
    <path
       d="m 71.969811,29.427184 -2.282125,0 -1.587565,9.922283 1.431644,0 0.269319,-1.800186 1.913583,0 0.269319,1.800186 1.573391,0 -1.587566,-9.922283 z m -1.219023,1.757661 0.751259,5.01784 -1.502517,0 0.751258,-5.01784 z"
       style="font-style:normal;font-variant:normal;font-weight:bold;font-stretch:normal;font-size:14.17469025px;line-height:94.99999881%;font-family:'Bebas Neue';-inkscape-font-specification:'Bebas Neue Bold';text-align:center;letter-spacing:0.00230079px;text-anchor:middle"
       id="path4197" />
    <path
       d="m 74.07351,31.808531 c 0,2.834939 3.047558,3.217655 3.047558,5.258811 0,0.708734 -0.311843,0.963878 -0.807957,0.963878 -0.496114,0 -0.807957,-0.255144 -0.807957,-0.963878 l 0,-0.708735 -1.474168,0 0,0.609512 c 0,1.587565 0.793782,2.494745 2.324649,2.494745 1.530867,0 2.324649,-0.90718 2.324649,-2.494745 0,-2.834938 -3.047558,-3.217655 -3.047558,-5.25881 0,-0.708735 0.283494,-0.978054 0.779608,-0.978054 0.496114,0 0.779608,0.269319 0.779608,0.978054 l 0,0.411066 1.474167,0 0,-0.311844 c 0,-1.587565 -0.779607,-2.494745 -2.296299,-2.494745 -1.516692,0 -2.2963,0.90718 -2.2963,2.494745 z"
       style="font-style:normal;font-variant:normal;font-weight:bold;font-stretch:normal;font-size:14.17469025px;line-height:94.99999881%;font-family:'Bebas Neue';-inkscape-font-specification:'Bebas Neue Bold';text-align:center;letter-spacing:0.00230079px;text-anchor:middle"
       id="path4199" />
    <path
       d="m 79.39132,31.808531 c 0,2.834939 3.047558,3.217655 3.047558,5.258811 0,0.708734 -0.311843,0.963878 -0.807957,0.963878 -0.496114,0 -0.807957,-0.255144 -0.807957,-0.963878 l 0,-0.708735 -1.474168,0 0,0.609512 c 0,1.587565 0.793782,2.494745 2.324649,2.494745 1.530867,0 2.324649,-0.90718 2.324649,-2.494745 0,-2.834938 -3.047558,-3.217655 -3.047558,-5.25881 0,-0.708735 0.283494,-0.978054 0.779608,-0.978054 0.496114,0 0.779608,0.269319 0.779608,0.978054 l 0,0.411066 1.474168,0 0,-0.311844 c 0,-1.587565 -0.779608,-2.494745 -2.2963,-2.494745 -1.516692,0 -2.2963,0.90718 -2.2963,2.494745 z"
       style="font-style:normal;font-variant:normal;font-weight:bold;font-stretch:normal;font-size:14.17469025px;line-height:94.99999881%;font-family:'Bebas Neue';-inkscape-font-specification:'Bebas Neue Bold';text-align:center;letter-spacing:0.00230079px;text-anchor:middle"
       id="path4201" />
    <path
       d="m 86.466792,30.844653 2.693191,0 0,-1.417469 -4.252407,0 0,9.922283 4.252407,0 0,-1.417469 -2.693191,0 0,-2.905812 2.140378,0 0,-1.417469 -2.140378,0 0,-2.764064 z"
       style="font-style:normal;font-variant:normal;font-weight:bold;font-stretch:normal;font-size:14.17469025px;line-height:94.99999881%;font-family:'Bebas Neue';-inkscape-font-specification:'Bebas Neue Bold';text-align:center;letter-spacing:0.00230079px;text-anchor:middle"
       id="path4203" />
  </g>
</svg>
