<?xml version="1.0" encoding="UTF-8" standalone="no"?>
<!-- Created with Inkscape (http://www.inkscape.org/) -->

<svg
   xmlns:dc="http://purl.org/dc/elements/1.1/"
   xmlns:cc="http://creativecommons.org/ns#"
   xmlns:rdf="http://www.w3.org/1999/02/22-rdf-syntax-ns#"
   xmlns:svg="http://www.w3.org/2000/svg"
   xmlns="http://www.w3.org/2000/svg"
   xmlns:sodipodi="http://sodipodi.sourceforge.net/DTD/sodipodi-0.dtd"
   xmlns:inkscape="http://www.inkscape.org/namespaces/inkscape"
   width="34.946087mm"
   height="39.922977mm"
   viewBox="0 0 123.82472 141.45937"
   id="svg3478"
   version="1.1"
   inkscape:version="0.91 r13725"
   sodipodi:docname="schraeger-vogel.svg">
  <defs
     id="defs3480" />
  <sodipodi:namedview
     id="base"
     pagecolor="#ffffff"
     bordercolor="#666666"
     borderopacity="1.0"
     inkscape:pageopacity="0.0"
     inkscape:pageshadow="2"
     inkscape:zoom="0.35"
     inkscape:cx="-341.65907"
     inkscape:cy="-117.84175"
     inkscape:document-units="px"
     inkscape:current-layer="layer1"
     showgrid="false"
     fit-margin-top="0"
     fit-margin-left="0"
     fit-margin-right="0"
     fit-margin-bottom="0"
     inkscape:window-width="1436"
     inkscape:window-height="855"
     inkscape:window-x="4"
     inkscape:window-y="1"
     inkscape:window-maximized="1" />
  <metadata
     id="metadata3483">
    <rdf:RDF>
      <cc:Work
         rdf:about="">
        <dc:format>image/svg+xml</dc:format>
        <dc:type
           rdf:resource="http://purl.org/dc/dcmitype/StillImage" />
        <dc:title></dc:title>
      </cc:Work>
    </rdf:RDF>
  </metadata>
  <g
     inkscape:label="Layer 1"
     inkscape:groupmode="layer"
     id="layer1"
     transform="translate(-209.51621,-318.77537)">
    <g
       transform="matrix(0.1152411,0.384007,-0.384007,0.1152411,317.80251,295.25387)"
       inkscape:label="Layer 1"
       id="layer1-8"
       style="fill:#2d2d2d;stroke:#2d2d2d;stroke-width:1.33086371;stroke-miterlimit:4;stroke-dasharray:none;stroke-opacity:1">
      <path
         d="m 89.373,39.87 c -3.277,-0.056 -6.65,0.181 -9.917,0.916 -8.311,1.87 -16.447,7.647 -15.901,10.349 0.419,2.072 0.462,1.752 -1.078,1.752 -5.662,0 -18.73,7.088 -18.73,7.088 0,0 9.283,-0.566 10.053,0.512 0.77,1.078 0.315,1.674 1.239,2.29 0.924,0.616 5.544,1.398 0,0.782 -5.544,-0.616 -9.567,-0.216 -9.567,-0.216 0,0 7.989,2.576 13.071,7.196 0.918,0.835 4.738,2.351 5.012,4.204 0.456,3.081 -0.847,1.677 -0.619,4.77 0.34,4.631 1.155,4.227 -0.539,6.845 -1.694,2.618 2.005,1.808 -0.701,6.765 -1.877,3.438 0.52,5.162 -1.967,7.037 0,0 -1.258,1.09 -1.591,1.43 -0.332,0.33 2.336,-0.18 1.671,0.32 -0.664,0.5 -6.209,7.96 -8.866,16.76 -2.657,8.8 -6.033,26.29 -5.094,34.58 0.749,6.6 11.41,45.52 13.071,49.51 1.661,3.98 16.151,35.21 31.585,50.36 4.136,4.06 6.496,7.38 7.816,9.71 -6.519,2.1 -6.28,3.85 -6.28,3.85 0,0 -0.135,1.48 -0.673,1.48 -0.539,0 -1.618,0.54 -2.561,0.95 -0.942,0.4 -4.042,-0.41 -4.312,0.13 -0.269,0.54 0,-0.81 -1.212,-1.08 -1.213,-0.27 -3.774,-0.4 -4.582,0.95 -0.808,1.34 -0.539,2.02 -2.021,2.29 -1.482,0.27 -3.387,-0.04 -4.043,0.27 -2.559,1.21 -4.312,1.21 -5.389,1.21 -1.078,0 -2.534,1.21 -3.073,2.29 -0.531,1.06 -0.664,2.65 0.108,3.85 -1.115,0.43 -3.756,1.69 -5.228,4.64 -1.886,3.77 1.213,7.95 1.213,7.95 3.232,4.44 7.25,3.17 9.136,2.69 0.017,0 0.036,-0.02 0.053,-0.02 0.196,0.6 0.595,1.24 1.429,1.32 1.202,0.11 1.721,3.88 6.953,5.44 1.982,0.59 4.678,-0.55 6.333,-1.45 2.228,1.81 4.836,2.7 5.713,3.04 1.338,0.53 2.848,-1.14 5.229,-0.56 1.401,0.33 1.24,-1.49 1.913,-1.51 2.762,-0.1 3.063,-1.35 2.749,-1.92 -1.051,-1.93 0.854,-3.89 0,-5.23 -1.348,-2.09 -0.76,-3.53 -1.617,-4.77 -0.401,-0.57 -1.053,-1.3 -1.536,-2.23 2.308,-0.79 4.617,-1.63 6.897,-2.51 0.48,2.55 0.41,2.98 1.21,3.15 0.48,0.11 1.82,0.27 2.59,0.97 0.43,0.39 0.3,0.36 1.32,0.62 1.03,0.27 2.53,1.27 3.94,1.38 5.53,0.41 7.42,-1.46 7.62,-1.86 0.21,-0.4 2.14,0.13 4.61,-1.51 2.03,-1.35 1.97,-2.4 2.99,-2.59 2.01,-0.37 1.63,-3.4 1.54,-4.01 1.15,-0.03 1.59,-0.27 1.59,-0.27 0,0 -4.39,-1.9 -1.91,-1.13 2.47,0.76 13.93,5.12 17.16,4.74 3.24,-0.38 -0.38,0.6 -5.14,-2.64 -4.77,-3.24 6.67,1.5 10.48,1.88 3.81,0.39 4.55,1.14 -0.78,-2.47 -5.34,-3.62 7.05,2.49 10.29,4.01 3.24,1.52 2.11,0.94 -0.75,-1.91 -2.86,-2.86 1.52,-2.3 6.28,0.75 4.76,3.05 8,4.02 8,4.02 0,0 -10.29,-7.44 -5.15,-4.77 5.15,2.66 17.91,10.11 22.86,12.58 4.95,2.48 6.49,6.65 17.92,13.5 11.43,6.86 12.37,7.25 12.37,7.25 0,0 7.43,8.56 11.05,12.37 3.62,3.81 14.69,17.31 14.69,17.31 0,0 9.43,11.94 16.3,15.17 6.87,3.23 7.95,0.67 12.13,-0.67 4.17,-1.35 0.67,-6.74 -0.27,-8.49 -0.94,-1.76 0.54,-2.56 -0.54,-4.18 -1.08,-1.62 -9.51,-11 -9.51,-11 l 0.16,0 c 0,0 -7.13,-9.48 -8.63,-11.8 -1.49,-2.33 -6.17,-7.68 -6.6,-10.38 -0.6,-3.8 -1.04,-4.46 -1.59,-5.76 -0.88,-2.09 -1.87,-1.23 -3.39,-4.77 -1.21,-2.82 -6.24,-5.56 -6.5,-7.06 -0.53,-3.07 -13.54,-17.45 -16.63,-20.35 -2.29,-2.16 -1.61,-1.87 -2.77,-4.69 -1.16,-2.82 -5.24,-4.55 -4.64,-5.26 1.56,-1.81 -0.93,-2.97 1.16,-4.66 0.67,-1.49 -1.87,-6.5 -4.36,-10.48 -2.5,-3.99 -7.16,-9.97 -7.82,-11.13 -0.66,-1.17 -5.32,-5.63 -4.99,-6.79 0.34,-1.17 -2.5,-4.83 -2.66,-6.82 -0.17,-2 -2.48,-4.99 -2.48,-6.82 0,-1.83 -4.14,-12.02 -5.45,-14.01 -0.58,-0.89 -4.55,-4.35 -4.36,-6.18 0.49,-4.66 -8.97,-20.24 -13.21,-28.75 -4.07,-8.19 -1.23,-2.25 -13.02,-30.27 -1.59,-3.78 -1.82,-5.99 -2.99,-8.65 -1.16,-2.65 -1.33,-3.64 -1.83,-6.47 -0.5,-2.82 -1.83,-1.66 -1.83,-3.82 0,-2.16 0,-2.5 -1,-4.99 -1,-2.49 -0.31,-3.98 -1.64,-5.31 -1.33,-1.33 0.48,-5.31 -0.52,-6.14 -0.99,-0.83 -2.15,-5.473 -2.15,-5.473 0,0 1.48,-0.993 0.32,-2.156 -1.16,-1.162 -0.99,-5.147 -0.99,-5.147 0,0 2.17,-0.014 1.5,-0.512 -0.58,-0.436 -2.44,-3.293 -2.56,-3.665 0.02,0.006 0.03,0.003 0.06,0.027 0.5,0.498 2.56,-1.051 2.56,-1.051 -2.94,-2.074 -3.91,-14.624 -14.31,-27.004 -4.98,-5.923 -18.18,-14.486 -22.1,-15.793 -2.94,-0.98 -11.946,-3.928 -21.777,-4.096 z m 31.347,236.05 c 0.55,0.58 1.12,1.16 1.72,1.7 -0.3,0.86 -0.97,2.86 -0.86,3.75 0.13,1.14 1.49,1.37 1.97,2.05 0.47,0.67 -0.09,0.79 -0.79,1.53 -0.89,0.95 -4.38,0.61 -5.92,0.54 -1.55,-0.07 -3.79,-1.54 -5.02,-2.86 -1.14,-1.22 0.12,-0.37 -0.02,-2.18 2.52,-1.14 4.97,-2.35 7.27,-3.61 0.55,0.36 0.97,0.57 1.19,0.65 0.57,0.19 0.25,-0.39 -0.3,-1.16 0.25,-0.14 0.51,-0.26 0.76,-0.41 z m -9.19,7.33 c 0.03,0.02 0.18,0.19 0.54,0.6 2.36,2.75 5.16,2.95 5.03,2.77 0,0 -0.51,0.7 0.6,1.51 0.05,0.1 0.36,0.22 -0.51,0.3 -4.71,0.4 -6.45,-0.36 -6.23,-1.08 0.22,-0.72 0.05,-0.63 -0.03,-1.29 -0.07,-0.64 0.21,-0.63 0.65,-0.97 0.71,-0.55 -0.17,-1.89 -0.05,-1.84 z m -21.025,5.18 c 0.927,1.15 1.84,1.44 2.237,1.64 0.572,0.29 0.953,3.71 0,3.99 -0.288,0.09 -1.15,0.12 -2.102,0.78 -0.952,0.67 -1.03,1.91 -0.458,2.67 1.063,1.42 -0.688,0.76 -0.593,1.43 0.095,0.67 -3.047,-0.58 -5.713,-2.29 -1.873,-1.21 -2.677,-4.16 -2.938,-5.39 3.066,-0.86 6.287,-1.8 9.567,-2.83 z m -9.729,2.88 c -0.121,1.41 -0.137,5.08 2.83,7.82 0.053,0.05 0.109,0.09 0.162,0.13 -6.22,1.61 -8.426,-1.73 -8.031,-2.53 0.248,-0.51 -1.334,-1 -0.728,-2.08 0.606,-1.07 1.348,-0.2 1.348,-1.34 0,-0.3 0.013,-0.55 0.027,-0.81 1.425,-0.38 2.88,-0.76 4.392,-1.19 z"
         style="fill:#2d2d2d;fill-rule:evenodd;stroke:#2d2d2d;stroke-width:1.33086371;stroke-miterlimit:4;stroke-dasharray:none;stroke-opacity:1"
         id="path1993"
         inkscape:connector-curvature="0" />
    </g>
    <g
       transform="matrix(0.75732821,-0.65303444,0.65303444,0.75732821,0,0)"
       style="color:#000000;font-style:italic;font-variant:normal;font-weight:bold;font-stretch:normal;font-size:22.37794495px;line-height:94.99999881%;font-family:'Cooper Hewitt';-inkscape-font-specification:'Cooper Hewitt Bold Italic';text-indent:0;text-align:start;text-decoration:none;text-decoration-line:none;text-decoration-style:solid;text-decoration-color:#000000;letter-spacing:0px;word-spacing:0px;text-transform:none;direction:ltr;block-progression:tb;writing-mode:lr-tb;baseline-shift:baseline;text-anchor:start;white-space:normal;clip-rule:nonzero;display:inline;overflow:visible;visibility:visible;opacity:1;isolation:auto;mix-blend-mode:normal;color-interpolation:sRGB;color-interpolation-filters:linearRGB;solid-color:#000000;solid-opacity:1;fill:#2d2d2d;fill-opacity:1;fill-rule:nonzero;stroke:none;stroke-width:10;stroke-linecap:butt;stroke-linejoin:miter;stroke-miterlimit:4;stroke-dasharray:none;stroke-dashoffset:0;stroke-opacity:1;color-rendering:auto;image-rendering:auto;shape-rendering:auto;text-rendering:auto;enable-background:accumulate"
       id="text5932">
      <path
         d="m -96.836364,491.49549 c 2.483951,0.46994 3.132912,1.27554 2.976266,2.41682 l -0.04476,0.33567 c -0.156645,1.14127 -1.007007,1.7231 -2.50633,1.7231 l -0.223779,0 c -1.678346,0 -2.707731,-0.87274 -2.39444,-3.11054 l -3.625227,0 -0.0671,0.5147 c -0.49232,3.73711 1.70072,5.72875 6.109175,5.72875 3.669983,0 5.974911,-1.63359 6.400092,-4.87839 l 0.06713,-0.51469 c 0.358047,-2.75249 -1.342677,-4.47559 -4.945526,-5.14693 -2.50633,-0.46994 -3.021022,-1.27554 -2.886755,-2.30493 l 0.04476,-0.33567 c 0.134268,-1.09652 1.118897,-1.7231 2.327307,-1.7231 l 0.223779,0 c 2.014015,0 2.573464,1.09652 2.28255,3.33431 l 3.625227,0 0.06713,-0.51469 c 0.514693,-3.87138 -1.342676,-5.95253 -5.997289,-5.95253 -3.580471,0 -5.795884,1.65597 -6.221064,4.87839 l -0.0671,0.51469 c -0.33567,2.52871 1.09652,4.34132 4.856016,5.03504 z"
         style=""
         id="path3524" />
      <path
         d="m -84.33024,489.70525 c 0.425181,-3.49096 1.476944,-5.50497 3.468581,-5.50497 l 0.22378,0 c 1.924503,0 2.349684,1.27554 2.036393,3.78187 l 3.647605,0 0.08951,-0.71609 c 0.514693,-4.13992 -1.253164,-6.19869 -5.795887,-6.19869 -4.318944,0 -6.601494,2.59584 -7.362344,8.66026 l -0.08951,0.7161 c -0.76085,6.0868 1.432189,8.66026 5.751132,8.66026 3.826629,0 6.131557,-1.63359 6.713383,-5.90778 l 0.04476,-0.33567 -3.647605,0 c -0.268535,1.96926 -0.693716,3.11054 -2.909133,3.11054 l -0.223779,0 c -2.014015,0 -2.461574,-2.01402 -2.036393,-5.52735 l 0.08951,-0.73848 z"
         style=""
         id="path3526" />
      <path
         d="m -63.263853,481.35828 -0.917496,6.98192 -5.079793,0 0.917495,-6.98192 -3.625227,0 -2.28255,17.4548 3.625227,0 0.962252,-7.33997 5.079793,0 -0.962251,7.33997 3.625227,0 2.28255,-17.4548 -3.625227,0 z"
         style=""
         id="path3528" />
      <path
         d="m -54.981566,492.54725 1.991637,0 1.544078,6.26583 3.804251,0 -1.85737,-6.71339 c 1.63359,-0.6042 2.976267,-1.94688 3.37907,-4.81125 l 0.06713,-0.5147 c 0.559448,-4.29656 -2.103527,-5.41546 -5.214062,-5.41546 l -5.885399,0 -2.28255,17.4548 3.625227,0 0.827984,-6.26583 z m 0.380425,-3.13291 0.671338,-4.92315 2.237795,0 c 0.984629,0 2.237794,0.40281 1.969259,2.37207 l -0.04476,0.33566 c -0.246158,1.90213 -1.566456,2.21542 -2.551086,2.21542 l -2.28255,0 z"
         style=""
         id="path3530" />
      <path
         d="m -37.498095,477.66592 -2.976267,0 -0.290913,2.23779 2.976266,0 0.290914,-2.23779 z m 3.91614,0 -2.976267,0 -0.290913,2.23779 2.976267,0 0.290913,-2.23779 z m -6.42247,3.6476 -6.64625,17.49956 3.893762,0 1.342677,-3.7595 4.25181,0 0.335669,3.7595 3.893762,0 -2.081149,-17.49956 -4.990281,0 z m 1.991637,4.05041 0.559448,6.55674 -2.864377,0 2.304929,-6.55674 z"
         style=""
         id="path3532" />
      <path
         d="m -24.767141,499.10399 c 2.841999,0 4.967904,-1.05176 6.019667,-2.01401 l 1.007008,-7.72039 -5.930156,0 -0.402803,3.13291 2.304929,0 -0.380425,2.86437 c -0.492315,0.35805 -1.275543,0.60421 -2.372063,0.60421 l -0.223779,0 c -2.215417,0 -2.931511,-2.01402 -2.50633,-5.52735 l 0.08951,-0.73848 c 0.425181,-3.49096 1.588834,-5.50497 3.580471,-5.50497 l 0.22378,0 c 1.924503,0 2.461574,1.27554 2.148282,3.78187 l 3.647605,0 0.08951,-0.71609 c 0.514693,-4.13992 -1.365054,-6.19869 -5.907777,-6.19869 -4.318944,0 -6.713384,2.59584 -7.474234,8.66026 l -0.08951,0.7161 c -0.76085,6.0868 1.85737,8.66026 6.176313,8.66026 z"
         style=""
         id="path3534" />
      <path
         d="m -14.275732,481.35828 -2.28255,17.4548 10.6742797,0 0.402803,-3.13291 -7.0490527,0 0.559449,-4.20706 5.9301551,0 0.402803,-3.13291 -5.9301551,0 0.514692,-3.84901 7.0490531,0 0.402803,-3.13291 -10.6742801,0 z"
         style=""
         id="path3536" />
      <path
         d="m 0.70105844,492.54725 1.99163706,0 1.5440782,6.26583 3.8042507,0 -1.8573694,-6.71339 c 1.6335899,-0.6042 2.9762666,-1.94688 3.3790696,-4.81125 l 0.067134,-0.5147 c 0.5594485,-4.29656 -2.1035269,-5.41546 -5.2140612,-5.41546 l -5.8853995,0 -2.2825504,17.4548 3.62522708,0 0.82798396,-6.26583 z m 0.38042506,-3.13291 0.6713384,-4.92315 2.2377944,0 c 0.9846296,0 2.2377945,0.40281 1.9692592,2.37207 l -0.044756,0.33566 c -0.2461574,1.90213 -1.5664561,2.21542 -2.5510857,2.21542 l -2.2825504,0 z"
         style=""
         id="path3538" />
      <path
         d="m -94.509058,520.11688 6.646249,-17.49955 -3.893762,0 -4.744124,13.44914 -1.186031,-13.44914 -3.893764,0 2.08115,17.49955 4.990282,0 z"
         style=""
         id="path3540" />
      <path
         d="m -80.329833,502.32641 c -4.542723,0 -6.713384,2.59585 -7.474234,8.66027 l -0.08951,0.71609 c -0.760851,6.0868 1.320298,8.66027 5.863021,8.66027 4.542723,0 6.713384,-2.59584 7.474234,-8.66027 l 0.08951,-0.71609 c 0.76085,-6.0868 -1.320299,-8.66027 -5.863022,-8.66027 z m -1.723102,14.90372 c -2.237794,0 -2.595841,-2.01402 -2.148283,-5.52736 l 0.08951,-0.71609 c 0.447559,-3.51334 1.365055,-5.52735 3.580471,-5.52735 l 0.22378,0 c 2.237794,0 2.595842,2.01401 2.148283,5.52735 l -0.08951,0.71609 c -0.447559,3.51334 -1.365055,5.52736 -3.580471,5.52736 l -0.22378,0 z"
         style=""
         id="path3542" />
      <path
         d="m -66.638376,520.36304 c 2.841999,0 4.967904,-1.05176 6.019667,-2.01402 l 1.007008,-7.72039 -5.930155,0 -0.402804,3.13291 2.304929,0 -0.380425,2.86438 c -0.492315,0.35805 -1.275543,0.60421 -2.372062,0.60421 l -0.22378,0 c -2.215416,0 -2.931511,-2.01402 -2.50633,-5.52736 l 0.08951,-0.73847 c 0.425181,-3.49096 1.588834,-5.50497 3.580471,-5.50497 l 0.22378,0 c 1.924503,0 2.461574,1.27554 2.148282,3.78187 l 3.647605,0 0.08951,-0.71609 c 0.514693,-4.13992 -1.365054,-6.1987 -5.907777,-6.1987 -4.318944,0 -6.713384,2.59585 -7.474234,8.66027 l -0.08951,0.71609 c -0.76085,6.0868 1.85737,8.66027 6.176313,8.66027 z"
         style=""
         id="path3544" />
      <path
         d="m -56.146967,502.61733 -2.28255,17.4548 10.67428,0 0.402803,-3.13292 -7.049053,0 0.559449,-4.20705 5.930155,0 0.402803,-3.13291 -5.930155,0 0.514693,-3.84901 7.049052,0 0.402803,-3.13291 -10.67428,0 z"
         style=""
         id="path3546" />
      <path
         d="m -35.553312,520.07213 0.402803,-3.13292 -6.444848,0 1.879747,-14.32188 -3.625227,0 -2.28255,17.4548 10.070075,0 z"
         style=""
         id="path3548" />
    </g>
  </g>
</svg>
