<?xml version="1.0" encoding="UTF-8" standalone="no"?>
<svg
   xmlns:dc="http://purl.org/dc/elements/1.1/"
   xmlns:cc="http://creativecommons.org/ns#"
   xmlns:rdf="http://www.w3.org/1999/02/22-rdf-syntax-ns#"
   xmlns:svg="http://www.w3.org/2000/svg"
   xmlns="http://www.w3.org/2000/svg"
   version="1.1"
   id="svg2"
   viewBox="0 0 965.22537 720.84949"
   height="20.343975cm"
   width="27.240805cm">
  <defs
     id="defs4" />
  <metadata
     id="metadata7">
    <rdf:RDF>
      <cc:Work
         rdf:about="">
        <dc:format>image/svg+xml</dc:format>
        <dc:type
           rdf:resource="http://purl.org/dc/dcmitype/StillImage" />
        <dc:title></dc:title>
      </cc:Work>
    </rdf:RDF>
  </metadata>
  <g
     transform="translate(-13.101622,-131.98675)"
     id="layer1">
    <path
       id="path7487"
       d="M 27.81645,572.45486 814.20438,835.59236 962.40825,221.60487 708.34446,145.99063 55.037563,375.85789 Z"
       style="display:inline;fill:none;fill-opacity:1;fill-rule:evenodd;stroke:#d41f20;stroke-width:26.64811707;stroke-linecap:butt;stroke-linejoin:miter;stroke-miterlimit:4;stroke-dasharray:none;stroke-opacity:1" />
    <g
       id="text7519"
       style="color:#000000;font-style:normal;font-variant:normal;font-weight:500;font-stretch:normal;font-size:97.30849457px;line-height:125%;font-family:'Garamond Premier Pro';-inkscape-font-specification:'Garamond Premier Pro Medium';text-indent:0;text-align:start;text-decoration:none;text-decoration-line:none;text-decoration-style:solid;text-decoration-color:#000000;letter-spacing:0px;word-spacing:0px;text-transform:none;direction:ltr;block-progression:tb;writing-mode:lr-tb;baseline-shift:baseline;text-anchor:start;white-space:normal;clip-rule:nonzero;display:inline;overflow:visible;visibility:visible;opacity:1;isolation:auto;mix-blend-mode:normal;color-interpolation:sRGB;color-interpolation-filters:linearRGB;solid-color:#000000;solid-opacity:1;fill:#d41f20;fill-opacity:1;fill-rule:nonzero;stroke:none;stroke-width:3.79999995;stroke-linecap:butt;stroke-linejoin:miter;stroke-miterlimit:4;stroke-dasharray:none;stroke-dashoffset:0;stroke-opacity:1;color-rendering:auto;image-rendering:auto;shape-rendering:auto;text-rendering:auto;enable-background:accumulate"
       transform="matrix(0.97827984,-0.21826684,0.1837897,0.98119655,0,0)">
      <path
         id="path4780"
         style="font-style:normal;font-variant:normal;font-weight:500;font-stretch:normal;font-family:'Garamond Premier Pro';-inkscape-font-specification:'Garamond Premier Pro Medium';fill:#d41f20;fill-opacity:1;stroke:none;stroke-width:3.79999995;stroke-miterlimit:4;stroke-dasharray:none;stroke-opacity:1"
         d="m 22.290504,422.48294 c -3.405797,0 -6.130435,0.87578 -8.076605,2.04348 -3.697722,2.2381 -5.4492754,5.54659 -5.4492754,9.04969 0,4.5735 3.1138714,8.07661 6.1304354,10.02278 3.113872,1.84886 3.795031,2.43271 6.227743,4.08695 3.016564,1.94617 4.281574,3.89234 4.281574,6.22775 0,1.84886 -0.778468,3.98965 -2.238095,5.15735 -0.973085,0.87577 -2.62733,1.45962 -3.89234,1.45962 -3.308489,0 -6.130435,-1.84886 -8.952381,-7.00621 -0.5838514,-1.07039 -1.2650109,-2.23809 -2.1407873,-2.23809 -0.4865425,0 -0.778468,0.87577 -0.778468,2.14078 0,2.91926 1.2650104,7.00622 1.5569359,7.49276 1.6542444,1.36232 6.5196694,2.14079 9.5362324,2.14079 2.919255,0 6.616978,-1.0704 8.465839,-2.33541 2.627329,-1.75155 5.741201,-4.96273 5.741201,-9.53623 0,-4.37888 -1.94617,-7.68737 -7.979296,-11.19048 -6.130435,-3.4058 -9.341616,-5.83851 -9.341616,-9.2443 0,-2.14079 1.94617,-5.74121 5.546584,-5.74121 3.211181,0 5.741202,1.94617 7.881989,6.42236 0.486542,1.0704 1.167701,1.84887 1.654244,1.84887 0.681159,0 1.167702,-0.97309 1.167702,-1.84887 0,-0.68115 -0.291926,-4.18426 -0.291926,-5.83851 -0.09731,-0.68115 -0.583851,-1.26501 -0.875776,-1.45962 -0.194617,-0.0973 -2.043478,-0.87578 -3.113872,-1.0704 -1.167702,-0.29192 -3.21118,-0.58385 -5.060042,-0.58385 z" />
      <path
         id="path4782"
         style="font-style:normal;font-variant:normal;font-weight:500;font-stretch:normal;font-family:'Garamond Premier Pro';-inkscape-font-specification:'Garamond Premier Pro Medium';fill:#d41f20;fill-opacity:1;stroke:none;stroke-width:3.79999995;stroke-miterlimit:4;stroke-dasharray:none;stroke-opacity:1"
         d="m 59.298141,458.00054 c -2.238096,0 -3.989649,-0.29192 -6.325053,-1.94617 -1.26501,-1.07039 -2.335403,-3.11387 -2.335403,-5.25466 0,-4.37888 0.291925,-21.99171 0.291925,-26.17598 0,-0.48654 -0.389234,-1.45963 -0.778468,-1.45963 -0.389234,0 -8.271222,1.0704 -10.99586,1.0704 -1.167702,0 -1.654244,0.58385 -1.654244,0.97308 0,0.87578 0.875776,1.45963 1.751553,1.84886 1.654244,0.68116 3.405797,1.0704 3.503105,3.79503 0.194617,5.15735 0.194617,15.86129 0.194617,22.77019 0,1.55694 0.68116,3.69772 1.362319,4.76812 1.94617,3.11387 5.060042,4.67081 8.757765,4.67081 2.821946,0 4.865425,-0.58386 6.519669,-1.26502 1.26501,-0.48654 5.060042,-2.82194 7.687371,-4.76811 0.194617,-0.0973 0.583851,0.19462 0.583851,0.58385 -0.09731,1.65424 -0.389234,3.60041 -0.389234,4.18426 0,0.68116 0.68116,1.36232 1.070394,1.36232 0.194617,0 2.043478,-0.48654 3.697722,-0.97308 2.238096,-0.58385 6.616978,-1.75155 9.04969,-1.94617 0.486543,0 1.167702,-0.68116 1.167702,-0.97309 -0.09731,-0.29192 -0.778468,-2.04347 -1.167702,-2.04347 -1.26501,0 -4.086956,0.58385 -4.865424,0.58385 -0.778468,0 -1.070394,-1.16771 -1.070394,-1.45963 0,-6.9089 0.583851,-29.19255 0.778468,-32.1118 0,-0.38924 -0.194617,-1.45963 -0.681159,-1.45963 -0.68116,0 -1.362319,0.0973 -2.335404,0.38923 -2.335404,0.58385 -7.10352,1.0704 -10.99586,1.0704 -0.875777,0 -2.043478,0.58385 -2.043478,0.97308 0,0.77847 1.167701,1.36232 1.848861,1.55694 0.973085,0.19461 2.821946,0.87577 4.378882,1.26501 0.68116,0.29192 1.556936,1.55693 1.556936,2.14078 l -0.09731,22.28365 c 0,0.38923 -0.778468,1.84886 -1.362319,2.23809 -2.432713,2.14079 -4.962734,3.30849 -7.10352,3.30849 z" />
      <path
         id="path4784"
         style="font-style:normal;font-variant:normal;font-weight:500;font-stretch:normal;font-family:'Garamond Premier Pro';-inkscape-font-specification:'Garamond Premier Pro Medium';fill:#d41f20;fill-opacity:1;stroke:none;stroke-width:3.79999995;stroke-miterlimit:4;stroke-dasharray:none;stroke-opacity:1"
         d="m 113.12798,422.67756 c -2.82195,0 -5.54658,0.58385 -7.10352,1.26501 -1.36232,0.58385 -3.98965,1.94617 -6.227743,3.4058 -0.389234,0.29192 -0.778468,-0.19462 -0.778468,-0.48654 0.09731,-1.55694 0.09731,-3.30849 0.291925,-4.96274 0,-0.38923 -0.778467,-1.1677 -1.070393,-1.1677 -0.194617,0 -0.973085,0.38923 -1.94617,0.87578 -1.94617,1.07039 -6.325052,3.01656 -7.979296,3.5031 -0.486543,0.19462 -1.459628,1.36232 -1.459628,1.75156 0,0.58385 1.265011,1.55693 3.600414,3.30848 0.291926,0.19462 0.68116,0.77847 0.778468,4.47619 0.09731,5.35197 0,13.33127 0,19.94825 0,9.92546 -0.09731,17.80745 -0.291925,21.11594 -0.389234,6.61698 -0.875776,7.59006 -5.935818,8.66046 -1.556936,0.29192 -2.238096,1.07039 -2.238096,1.45962 0,0.97309 1.362319,1.36232 2.821947,1.36232 3.21118,0 4.281574,-0.29192 6.616977,-0.29192 3.795032,0 9.633546,0.48654 11.871636,0.48654 1.26501,0 2.62733,-0.48654 2.62733,-1.26501 0,-0.68116 -0.87578,-1.1677 -2.82195,-1.75155 -3.69772,-1.16771 -4.378879,-2.43272 -4.670804,-5.06005 -0.291925,-2.62733 -0.291925,-7.29813 -0.291925,-15.76397 0,-0.48654 0.291925,-1.26501 0.681159,-1.26501 1.1677,0.19461 3.21118,0.38923 5.25466,0.38923 4.18426,0 10.02277,-0.77847 15.37474,-4.96273 6.03313,-4.5735 8.36853,-11.4824 8.36853,-16.83437 0,-5.35197 -2.23809,-10.02278 -4.67081,-12.74741 -2.82194,-3.11388 -7.20082,-5.44928 -10.80124,-5.44928 z m -5.44927,5.15735 c 2.14078,0 6.03312,1.36232 8.46583,3.89234 3.89234,4.28157 3.98965,9.53623 3.98965,11.77433 0,2.91925 -1.55693,10.41201 -6.42236,14.49896 -1.26501,1.0704 -3.11387,1.45963 -4.18426,1.45963 -2.33541,0 -6.90891,-1.65424 -9.43893,-5.35197 -0.583849,-0.87577 -0.973082,-2.53002 -1.167699,-4.28157 -0.291926,-4.28157 -0.291926,-14.30435 0.291925,-17.51553 0.194617,-1.55693 0.778468,-2.53002 1.167704,-2.82195 1.1677,-0.87577 3.79503,-1.65424 7.29814,-1.65424 z" />
      <path
         id="path4786"
         style="font-style:normal;font-variant:normal;font-weight:500;font-stretch:normal;font-family:'Garamond Premier Pro';-inkscape-font-specification:'Garamond Premier Pro Medium';fill:#d41f20;fill-opacity:1;stroke:none;stroke-width:3.79999995;stroke-miterlimit:4;stroke-dasharray:none;stroke-opacity:1"
         d="m 155.23976,422.67756 c -1.84886,0 -5.06004,0.48654 -7.59007,1.65424 -7.68737,3.60042 -11.77432,11.3851 -11.77432,19.16978 0,11.28778 6.9089,19.36439 17.51553,19.36439 6.13043,0 11.19047,-2.62733 14.49896,-7.49276 0.29193,-0.58385 0.77847,-1.65424 0.77847,-2.43271 0,-0.38923 -0.29193,-1.1677 -0.87578,-1.1677 -0.38923,0 -0.87577,0.68116 -1.26501,1.1677 -1.65424,2.43271 -4.5735,3.50311 -8.75776,3.50311 -4.67081,0 -8.75777,-2.33541 -10.99586,-5.25466 -2.04348,-2.72464 -3.50311,-7.20083 -3.50311,-10.60663 0,-1.07039 0.0973,-2.62733 0.38924,-3.40579 0.0973,-0.38924 0.58385,-0.77847 0.87577,-0.77847 4.47619,0.0973 20.92133,0.0973 21.99172,0.0973 1.0704,0 1.94617,-1.26501 1.94617,-1.84887 0,-3.40579 -1.36232,-6.22774 -3.4058,-8.27122 -2.53002,-2.43271 -6.32505,-3.69772 -9.82815,-3.69772 z m -0.97309,2.43271 c 3.4058,0 6.22775,3.21118 6.22775,5.93582 0,2.04348 -1.16771,2.62733 -3.30849,2.62733 -4.86543,0.0973 -9.53624,0.0973 -12.06626,0 -0.29192,0 -0.68116,-0.58385 -0.48654,-1.07039 1.65425,-4.47619 5.35197,-7.49276 9.63354,-7.49276 z" />
      <path
         id="path4788"
         style="font-style:normal;font-variant:normal;font-weight:500;font-stretch:normal;font-family:'Garamond Premier Pro';-inkscape-font-specification:'Garamond Premier Pro Medium';fill:#d41f20;fill-opacity:1;stroke:none;stroke-width:3.79999995;stroke-miterlimit:4;stroke-dasharray:none;stroke-opacity:1"
         d="m 174.87327,427.64029 c 0,0.38924 1.26501,1.16771 3.40579,2.82195 0.97309,0.68116 0.97309,1.94617 0.97309,3.11387 l 0,18.09938 c -0.0973,5.83851 -0.38924,6.8116 -4.08696,8.07661 -0.68116,0.29192 -1.94617,0.68116 -1.94617,1.26501 0,0.87577 0.97309,1.26501 2.04348,1.26501 2.3354,0 3.69772,-0.38924 6.42236,-0.38924 5.64389,0 9.43892,0.48655 11.96895,0.48655 1.55693,0 2.43271,-0.38924 2.43271,-0.97309 0,-0.38923 -0.29193,-1.07039 -1.84886,-1.55694 -1.36232,-0.38923 -3.21118,-0.87577 -4.37889,-1.07039 -1.65424,-0.38923 -2.3354,-2.23809 -2.53002,-5.06004 -0.0973,-1.45963 -0.48654,-18.87785 -0.48654,-20.82402 0,-0.68116 0.29193,-1.45963 0.97309,-2.14078 0.87577,-0.97309 2.3354,-1.16771 3.79503,-1.16771 1.94617,0 4.47619,1.26501 5.54658,2.2381 0.29193,0.19462 1.26501,0.38923 1.45963,0.29192 0.68116,-0.29192 3.01656,-3.11387 4.18426,-4.76811 0.29193,-0.48654 0.58386,-1.1677 0.58386,-1.45963 0,-0.87578 -0.97309,-3.4058 -5.06005,-3.4058 -3.01656,0 -7.29813,2.53002 -10.99586,6.03313 -0.0973,0.19462 -0.58385,0 -0.58385,-0.38923 0,-1.84887 0.19462,-3.60042 0.19462,-5.35197 0,-0.29193 -0.48654,-1.07039 -0.97309,-1.07039 -0.29192,0 -0.87577,0.29192 -2.04347,1.07039 -1.16771,0.68116 -4.47619,2.14079 -7.78468,3.30849 -0.97309,0.29192 -1.26501,1.36232 -1.26501,1.55693 z" />
      <path
         id="path4790"
         style="font-style:normal;font-variant:normal;font-weight:500;font-stretch:normal;font-family:'Garamond Premier Pro';-inkscape-font-specification:'Garamond Premier Pro Medium';fill:#d41f20;fill-opacity:1;stroke:none;stroke-width:3.79999995;stroke-miterlimit:4;stroke-dasharray:none;stroke-opacity:1"
         d="m 229.16533,422.58025 c -2.82195,0 -8.56315,0.97309 -12.84472,3.69772 -4.76812,2.82195 -10.41201,8.27123 -10.41201,17.90477 0,4.86542 1.55693,9.92546 4.86542,13.42857 2.91926,3.11387 7.20083,5.15735 12.06626,5.15735 3.21118,0 8.17391,-1.07039 12.45548,-4.76812 0.19462,0 0.58385,0.19462 0.58385,0.68116 0,1.36232 -0.19461,3.01657 -0.19461,3.89234 0,0.48655 0.68116,1.26501 1.07039,1.26501 0.48654,0 1.45963,-0.19461 3.69772,-0.97308 1.84886,-0.68116 7.10352,-1.65425 9.04969,-1.94617 0.48655,-0.19462 1.75156,-1.75155 1.75156,-2.53002 0,-0.0973 -0.19462,-0.58385 -0.58386,-0.58385 -0.97308,0.0973 -4.08695,0.68116 -5.15735,0.68116 -0.58385,0 -1.36231,-0.48655 -1.55693,-4.5735 -0.0973,-1.84886 -0.29193,-4.08696 -0.29193,-21.50518 0,-28.12216 0.48655,-33.27951 0.87578,-38.14493 0.0973,-0.77847 -0.48654,-1.55694 -0.68116,-1.55694 -0.48654,0 -0.87578,0.0973 -1.36232,0.29193 -2.62733,0.97308 -8.17391,2.43271 -10.50932,2.82195 -0.58385,0.0973 -1.65424,1.1677 -1.65424,1.55693 0,0.19462 0.19462,0.48654 1.07039,0.97309 4.37888,2.23809 4.37888,3.40579 4.47619,3.98964 0.29193,2.33541 0.58385,16.83437 0.0973,19.55901 -0.0973,0.38924 -0.38923,1.0704 -0.77847,0.97309 -1.26501,-0.19462 -2.82194,-0.29193 -6.03312,-0.29193 z m -3.60042,3.30849 c 1.94617,0 5.54659,1.07039 8.27122,3.79503 1.0704,1.1677 1.94617,3.01656 2.04348,3.79503 0.38924,4.37889 0.38924,10.60663 0.29193,16.25052 -0.0973,2.82195 -1.36232,5.83851 -1.55694,6.03313 -1.65424,1.26501 -3.69772,2.14079 -6.61697,2.14079 -8.17392,0 -13.62319,-8.75777 -13.62319,-16.63976 0,-4.96273 1.94617,-10.12008 3.98964,-12.16356 1.75156,-1.75155 4.37889,-3.21118 7.20083,-3.21118 z" />
      <path
         id="path4792"
         style="font-style:normal;font-variant:normal;font-weight:500;font-stretch:normal;font-family:'Garamond Premier Pro';-inkscape-font-specification:'Garamond Premier Pro Medium';fill:#d41f20;fill-opacity:1;stroke:none;stroke-width:3.79999995;stroke-miterlimit:4;stroke-dasharray:none;stroke-opacity:1"
         d="m 272.26386,422.48294 c -1.75156,0 -6.13044,1.55694 -9.147,3.69773 -4.86543,3.21118 -7.49276,5.93581 -7.49276,8.66045 0,0.58385 0.58385,1.36232 1.16771,1.36232 0.48654,0 5.83851,-2.62733 6.81159,-3.4058 0.19462,-0.19461 0.48654,-0.68116 0.48654,-0.97308 -0.0973,-2.2381 0.19462,-3.79503 0.68116,-4.08696 0.68116,-0.48654 1.94617,-0.97308 3.79503,-0.97308 4.76812,0 7.39545,3.98965 7.39545,6.42236 0.0973,1.1677 -0.0973,7.00621 -0.19462,7.88199 0,0.58385 -0.58385,1.07039 -2.62733,1.75155 -2.14078,0.68116 -10.12008,2.82194 -11.67702,3.5031 -1.36232,0.58386 -2.91925,1.0704 -3.89234,2.33541 -1.07039,1.36232 -1.84886,3.30849 -1.84886,5.06004 0,4.96273 3.4058,9.147 6.90891,9.147 0.68116,0 2.91925,-0.19462 3.98964,-0.58385 1.0704,-0.38924 5.15735,-2.04348 8.56315,-4.37888 0.19462,-0.0973 0.58385,0.19461 0.68116,0.38923 1.1677,3.60041 3.98965,4.76812 6.32505,4.76812 4.67081,0 9.04969,-4.28158 9.04969,-6.13044 0,-0.0973 0,-0.77847 -0.19461,-1.07039 -0.19462,-0.29193 -0.29193,-0.38924 -0.58385,-0.29193 -1.16771,0.68116 -3.30849,1.45963 -3.69773,1.45963 -0.97308,0 -3.79503,-0.58385 -3.79503,-4.67081 0,-1.07039 0.38923,-13.13665 0.38923,-16.93168 0,-4.18426 -0.68115,-6.22774 -2.04347,-8.17391 -1.45963,-2.14079 -3.98965,-4.76812 -9.04969,-4.76812 z m -2.91926,35.12837 c -1.94617,0 -5.83851,-1.55694 -5.83851,-5.83851 0,-2.43271 0.77847,-3.11387 1.84886,-3.69772 2.43272,-1.36232 7.10352,-2.91926 9.63354,-2.91926 0.29193,0 0.68116,0.48654 0.68116,0.77847 0,2.2381 -0.0973,5.7412 -0.19461,7.78468 -0.0973,0.29193 -0.58385,2.04348 -1.16771,2.3354 -1.65424,0.97309 -3.60041,1.55694 -4.96273,1.55694 z" />
      <path
         id="path4794"
         style="font-style:normal;font-variant:normal;font-weight:500;font-stretch:normal;font-family:'Garamond Premier Pro';-inkscape-font-specification:'Garamond Premier Pro Medium';fill:#d41f20;fill-opacity:1;stroke:none;stroke-width:3.79999995;stroke-miterlimit:4;stroke-dasharray:none;stroke-opacity:1"
         d="m 317.16109,422.58025 c -2.82195,0 -8.56315,0.97309 -12.84473,3.69772 -4.76811,2.82195 -10.412,8.27123 -10.412,17.90477 0,4.86542 1.55693,9.92546 4.86542,13.42857 2.91925,3.11387 7.20083,5.15735 12.06625,5.15735 3.21118,0 8.17392,-1.07039 12.45549,-4.76812 0.19462,0 0.58385,0.19462 0.58385,0.68116 0,1.36232 -0.19462,3.01657 -0.19462,3.89234 0,0.48655 0.68116,1.26501 1.0704,1.26501 0.48654,0 1.45963,-0.19461 3.69772,-0.97308 1.84886,-0.68116 7.10352,-1.65425 9.04969,-1.94617 0.48654,-0.19462 1.75155,-1.75155 1.75155,-2.53002 0,-0.0973 -0.19461,-0.58385 -0.58385,-0.58385 -0.97308,0.0973 -4.08695,0.68116 -5.15735,0.68116 -0.58385,0 -1.36232,-0.48655 -1.55693,-4.5735 -0.0973,-1.84886 -0.29193,-4.08696 -0.29193,-21.50518 0,-28.12216 0.48654,-33.27951 0.87578,-38.14493 0.0973,-0.77847 -0.48655,-1.55694 -0.68116,-1.55694 -0.48654,0 -0.87578,0.0973 -1.36232,0.29193 -2.62733,0.97308 -8.17391,2.43271 -10.50932,2.82195 -0.58385,0.0973 -1.65424,1.1677 -1.65424,1.55693 0,0.19462 0.19461,0.48654 1.07039,0.97309 4.37888,2.23809 4.37888,3.40579 4.47619,3.98964 0.29193,2.33541 0.58385,16.83437 0.0973,19.55901 -0.0973,0.38924 -0.38923,1.0704 -0.77847,0.97309 -1.26501,-0.19462 -2.82194,-0.29193 -6.03312,-0.29193 z m -3.60042,3.30849 c 1.94617,0 5.54659,1.07039 8.27122,3.79503 1.0704,1.1677 1.94617,3.01656 2.04348,3.79503 0.38924,4.37889 0.38924,10.60663 0.29193,16.25052 -0.0973,2.82195 -1.36232,5.83851 -1.55694,6.03313 -1.65424,1.26501 -3.69772,2.14079 -6.61698,2.14079 -8.17391,0 -13.62319,-8.75777 -13.62319,-16.63976 0,-4.96273 1.94617,-10.12008 3.98965,-12.16356 1.75156,-1.75155 4.37888,-3.21118 7.20083,-3.21118 z" />
      <path
         id="path4796"
         style="font-style:normal;font-variant:normal;font-weight:500;font-stretch:normal;font-family:'Garamond Premier Pro';-inkscape-font-specification:'Garamond Premier Pro Medium';fill:#d41f20;fill-opacity:1;stroke:none;stroke-width:3.79999995;stroke-miterlimit:4;stroke-dasharray:none;stroke-opacity:1"
         d="m 360.25963,422.48294 c -1.75155,0 -6.13044,1.55694 -9.147,3.69773 -4.86542,3.21118 -7.49275,5.93581 -7.49275,8.66045 0,0.58385 0.58385,1.36232 1.1677,1.36232 0.48654,0 5.83851,-2.62733 6.81159,-3.4058 0.19462,-0.19461 0.48655,-0.68116 0.48655,-0.97308 -0.0973,-2.2381 0.19461,-3.79503 0.68116,-4.08696 0.68116,-0.48654 1.94617,-0.97308 3.79503,-0.97308 4.76811,0 7.39544,3.98965 7.39544,6.42236 0.0973,1.1677 -0.0973,7.00621 -0.19461,7.88199 0,0.58385 -0.58386,1.07039 -2.62733,1.75155 -2.14079,0.68116 -10.12009,2.82194 -11.67702,3.5031 -1.36232,0.58386 -2.91926,1.0704 -3.89234,2.33541 -1.0704,1.36232 -1.84886,3.30849 -1.84886,5.06004 0,4.96273 3.40579,9.147 6.9089,9.147 0.68116,0 2.91925,-0.19462 3.98965,-0.58385 1.07039,-0.38924 5.15735,-2.04348 8.56314,-4.37888 0.19462,-0.0973 0.58386,0.19461 0.68116,0.38923 1.16771,3.60041 3.98965,4.76812 6.32506,4.76812 4.6708,0 9.04969,-4.28158 9.04969,-6.13044 0,-0.0973 0,-0.77847 -0.19462,-1.07039 -0.19462,-0.29193 -0.29193,-0.38924 -0.58385,-0.29193 -1.1677,0.68116 -3.30849,1.45963 -3.69772,1.45963 -0.97309,0 -3.79504,-0.58385 -3.79504,-4.67081 0,-1.07039 0.38924,-13.13665 0.38924,-16.93168 0,-4.18426 -0.68116,-6.22774 -2.04348,-8.17391 -1.45963,-2.14079 -3.98965,-4.76812 -9.04969,-4.76812 z m -2.91925,35.12837 c -1.94617,0 -5.83851,-1.55694 -5.83851,-5.83851 0,-2.43271 0.77846,-3.11387 1.84886,-3.69772 2.43271,-1.36232 7.10352,-2.91926 9.63354,-2.91926 0.29192,0 0.68116,0.48654 0.68116,0.77847 0,2.2381 -0.0973,5.7412 -0.19462,7.78468 -0.0973,0.29193 -0.58385,2.04348 -1.1677,2.3354 -1.65425,0.97309 -3.60042,1.55694 -4.96273,1.55694 z" />
    </g>
  </g>
</svg>
